<?xml version="1.0" encoding="utf-8" standalone="no"?>
<!DOCTYPE svg PUBLIC "-//W3C//DTD SVG 1.1//EN"
  "http://www.w3.org/Graphics/SVG/1.1/DTD/svg11.dtd">
<!-- Created with matplotlib (https://matplotlib.org/) -->
<svg height="289.591563pt" version="1.1" viewBox="0 0 517.18125 289.591563" width="517.18125pt" xmlns="http://www.w3.org/2000/svg" xmlns:xlink="http://www.w3.org/1999/xlink">
 <defs>
  <style type="text/css">
*{stroke-linecap:butt;stroke-linejoin:round;}
  </style>
 </defs>
 <g id="figure_1">
  <g id="patch_1">
   <path d="M 0 289.591563 
L 517.18125 289.591563 
L 517.18125 0 
L 0 0 
z
" style="fill:#ffffff;"/>
  </g>
  <g id="axes_1">
   <g id="patch_2">
    <path d="M 60.08125 245.015 
L 506.48125 245.015 
L 506.48125 27.575 
L 60.08125 27.575 
z
" style="fill:#ffffff;"/>
   </g>
   <g id="matplotlib.axis_1">
    <g id="xtick_1">
     <g id="text_1">
      <!-- $\mathdefault{10^{-8}}$ -->
      <defs>
       <path d="M 37.25 0 
L 28.46875 0 
L 28.46875 56 
Q 25.296875 52.984375 20.140625 49.953125 
Q 14.984375 46.921875 10.890625 45.40625 
L 10.890625 53.90625 
Q 18.265625 57.375 23.78125 62.296875 
Q 29.296875 67.234375 31.59375 71.875 
L 37.25 71.875 
z
" id="ArialMT-49"/>
       <path d="M 4.15625 35.296875 
Q 4.15625 48 6.765625 55.734375 
Q 9.375 63.484375 14.515625 67.671875 
Q 19.671875 71.875 27.484375 71.875 
Q 33.25 71.875 37.59375 69.546875 
Q 41.9375 67.234375 44.765625 62.859375 
Q 47.609375 58.5 49.21875 52.21875 
Q 50.828125 45.953125 50.828125 35.296875 
Q 50.828125 22.703125 48.234375 14.96875 
Q 45.65625 7.234375 40.5 3 
Q 35.359375 -1.21875 27.484375 -1.21875 
Q 17.140625 -1.21875 11.234375 6.203125 
Q 4.15625 15.140625 4.15625 35.296875 
z
M 13.1875 35.296875 
Q 13.1875 17.671875 17.3125 11.828125 
Q 21.4375 6 27.484375 6 
Q 33.546875 6 37.671875 11.859375 
Q 41.796875 17.71875 41.796875 35.296875 
Q 41.796875 52.984375 37.671875 58.78125 
Q 33.546875 64.59375 27.390625 64.59375 
Q 21.34375 64.59375 17.71875 59.46875 
Q 13.1875 52.9375 13.1875 35.296875 
z
" id="ArialMT-48"/>
       <path d="M 52.828125 31.203125 
L 5.5625 31.203125 
L 5.5625 39.40625 
L 52.828125 39.40625 
z
" id="ArialMT-8722"/>
       <path d="M 17.671875 38.8125 
Q 12.203125 40.828125 9.5625 44.53125 
Q 6.9375 48.25 6.9375 53.421875 
Q 6.9375 61.234375 12.546875 66.546875 
Q 18.171875 71.875 27.484375 71.875 
Q 36.859375 71.875 42.578125 66.421875 
Q 48.296875 60.984375 48.296875 53.171875 
Q 48.296875 48.1875 45.671875 44.5 
Q 43.0625 40.828125 37.75 38.8125 
Q 44.34375 36.671875 47.78125 31.875 
Q 51.21875 27.09375 51.21875 20.453125 
Q 51.21875 11.28125 44.71875 5.03125 
Q 38.234375 -1.21875 27.640625 -1.21875 
Q 17.046875 -1.21875 10.546875 5.046875 
Q 4.046875 11.328125 4.046875 20.703125 
Q 4.046875 27.6875 7.59375 32.390625 
Q 11.140625 37.109375 17.671875 38.8125 
z
M 15.921875 53.71875 
Q 15.921875 48.640625 19.1875 45.40625 
Q 22.46875 42.1875 27.6875 42.1875 
Q 32.765625 42.1875 36.015625 45.375 
Q 39.265625 48.578125 39.265625 53.21875 
Q 39.265625 58.0625 35.90625 61.359375 
Q 32.5625 64.65625 27.59375 64.65625 
Q 22.5625 64.65625 19.234375 61.421875 
Q 15.921875 58.203125 15.921875 53.71875 
z
M 13.09375 20.65625 
Q 13.09375 16.890625 14.875 13.375 
Q 16.65625 9.859375 20.171875 7.921875 
Q 23.6875 6 27.734375 6 
Q 34.03125 6 38.125 10.046875 
Q 42.234375 14.109375 42.234375 20.359375 
Q 42.234375 26.703125 38.015625 30.859375 
Q 33.796875 35.015625 27.4375 35.015625 
Q 21.234375 35.015625 17.15625 30.90625 
Q 13.09375 26.8125 13.09375 20.65625 
z
" id="ArialMT-56"/>
      </defs>
      <g style="fill:#262626;" transform="translate(80.966141 262.3275)scale(0.1 -0.1)">
       <use transform="translate(0 0.99375)" xlink:href="#ArialMT-49"/>
       <use transform="translate(55.615234 0.99375)" xlink:href="#ArialMT-48"/>
       <use transform="translate(112.972813 70.6875)scale(0.7)" xlink:href="#ArialMT-8722"/>
       <use transform="translate(153.851719 70.6875)scale(0.7)" xlink:href="#ArialMT-56"/>
      </g>
     </g>
    </g>
    <g id="xtick_2">
     <g id="text_2">
      <!-- $\mathdefault{10^{-7}}$ -->
      <defs>
       <path d="M 4.734375 62.203125 
L 4.734375 70.65625 
L 51.078125 70.65625 
L 51.078125 63.8125 
Q 44.234375 56.546875 37.515625 44.484375 
Q 30.8125 32.421875 27.15625 19.671875 
Q 24.515625 10.6875 23.78125 0 
L 14.75 0 
Q 14.890625 8.453125 18.0625 20.40625 
Q 21.234375 32.375 27.171875 43.484375 
Q 33.109375 54.59375 39.796875 62.203125 
z
" id="ArialMT-55"/>
      </defs>
      <g style="fill:#262626;" transform="translate(196.348758 262.2275)scale(0.1 -0.1)">
       <use transform="translate(0 0.846875)" xlink:href="#ArialMT-49"/>
       <use transform="translate(55.615234 0.846875)" xlink:href="#ArialMT-48"/>
       <use transform="translate(112.972813 70.540625)scale(0.7)" xlink:href="#ArialMT-8722"/>
       <use transform="translate(153.851719 70.540625)scale(0.7)" xlink:href="#ArialMT-55"/>
      </g>
     </g>
    </g>
    <g id="xtick_3">
     <g id="text_3">
      <!-- $\mathdefault{10^{-6}}$ -->
      <defs>
       <path d="M 49.75 54.046875 
L 41.015625 53.375 
Q 39.84375 58.546875 37.703125 60.890625 
Q 34.125 64.65625 28.90625 64.65625 
Q 24.703125 64.65625 21.53125 62.3125 
Q 17.390625 59.28125 14.984375 53.46875 
Q 12.59375 47.65625 12.5 36.921875 
Q 15.671875 41.75 20.265625 44.09375 
Q 24.859375 46.4375 29.890625 46.4375 
Q 38.671875 46.4375 44.84375 39.96875 
Q 51.03125 33.5 51.03125 23.25 
Q 51.03125 16.5 48.125 10.71875 
Q 45.21875 4.9375 40.140625 1.859375 
Q 35.0625 -1.21875 28.609375 -1.21875 
Q 17.625 -1.21875 10.6875 6.859375 
Q 3.765625 14.9375 3.765625 33.5 
Q 3.765625 54.25 11.421875 63.671875 
Q 18.109375 71.875 29.4375 71.875 
Q 37.890625 71.875 43.28125 67.140625 
Q 48.6875 62.40625 49.75 54.046875 
z
M 13.875 23.1875 
Q 13.875 18.65625 15.796875 14.5 
Q 17.71875 10.359375 21.1875 8.171875 
Q 24.65625 6 28.46875 6 
Q 34.03125 6 38.03125 10.484375 
Q 42.046875 14.984375 42.046875 22.703125 
Q 42.046875 30.125 38.078125 34.390625 
Q 34.125 38.671875 28.125 38.671875 
Q 22.171875 38.671875 18.015625 34.390625 
Q 13.875 30.125 13.875 23.1875 
z
" id="ArialMT-54"/>
      </defs>
      <g style="fill:#262626;" transform="translate(311.731376 262.3275)scale(0.1 -0.1)">
       <use transform="translate(0 0.99375)" xlink:href="#ArialMT-49"/>
       <use transform="translate(55.615234 0.99375)" xlink:href="#ArialMT-48"/>
       <use transform="translate(112.972813 70.6875)scale(0.7)" xlink:href="#ArialMT-8722"/>
       <use transform="translate(153.851719 70.6875)scale(0.7)" xlink:href="#ArialMT-54"/>
      </g>
     </g>
    </g>
    <g id="xtick_4">
     <g id="text_4">
      <!-- $\mathdefault{10^{-5}}$ -->
      <defs>
       <path d="M 4.15625 18.75 
L 13.375 19.53125 
Q 14.40625 12.796875 18.140625 9.390625 
Q 21.875 6 27.15625 6 
Q 33.5 6 37.890625 10.78125 
Q 42.28125 15.578125 42.28125 23.484375 
Q 42.28125 31 38.0625 35.34375 
Q 33.84375 39.703125 27 39.703125 
Q 22.75 39.703125 19.328125 37.765625 
Q 15.921875 35.84375 13.96875 32.765625 
L 5.71875 33.84375 
L 12.640625 70.609375 
L 48.25 70.609375 
L 48.25 62.203125 
L 19.671875 62.203125 
L 15.828125 42.96875 
Q 22.265625 47.46875 29.34375 47.46875 
Q 38.71875 47.46875 45.15625 40.96875 
Q 51.609375 34.46875 51.609375 24.265625 
Q 51.609375 14.546875 45.953125 7.46875 
Q 39.0625 -1.21875 27.15625 -1.21875 
Q 17.390625 -1.21875 11.203125 4.25 
Q 5.03125 9.71875 4.15625 18.75 
z
" id="ArialMT-53"/>
      </defs>
      <g style="fill:#262626;" transform="translate(427.113993 262.2275)scale(0.1 -0.1)">
       <use transform="translate(0 0.879688)" xlink:href="#ArialMT-49"/>
       <use transform="translate(55.615234 0.879688)" xlink:href="#ArialMT-48"/>
       <use transform="translate(112.972813 70.573438)scale(0.7)" xlink:href="#ArialMT-8722"/>
       <use transform="translate(153.851719 70.573438)scale(0.7)" xlink:href="#ArialMT-53"/>
      </g>
     </g>
    </g>
    <g id="xtick_5"/>
    <g id="xtick_6"/>
    <g id="xtick_7"/>
    <g id="xtick_8"/>
    <g id="xtick_9"/>
    <g id="xtick_10"/>
    <g id="xtick_11"/>
    <g id="xtick_12"/>
    <g id="xtick_13"/>
    <g id="xtick_14"/>
    <g id="xtick_15"/>
    <g id="xtick_16"/>
    <g id="xtick_17"/>
    <g id="xtick_18"/>
    <g id="xtick_19"/>
    <g id="xtick_20"/>
    <g id="xtick_21"/>
    <g id="xtick_22"/>
    <g id="xtick_23"/>
    <g id="xtick_24"/>
    <g id="xtick_25"/>
    <g id="xtick_26"/>
    <g id="xtick_27"/>
    <g id="xtick_28"/>
    <g id="xtick_29"/>
    <g id="xtick_30"/>
    <g id="xtick_31"/>
    <g id="xtick_32"/>
    <g id="xtick_33"/>
    <g id="xtick_34"/>
    <g id="xtick_35"/>
    <g id="text_5">
     <!-- [Bosutinib](M) -->
     <defs>
      <path d="M 6.78125 -19.875 
L 6.78125 71.578125 
L 26.171875 71.578125 
L 26.171875 64.3125 
L 15.578125 64.3125 
L 15.578125 -12.59375 
L 26.171875 -12.59375 
L 26.171875 -19.875 
z
" id="ArialMT-91"/>
      <path d="M 7.328125 0 
L 7.328125 71.578125 
L 34.1875 71.578125 
Q 42.390625 71.578125 47.34375 69.40625 
Q 52.296875 67.234375 55.09375 62.71875 
Q 57.90625 58.203125 57.90625 53.265625 
Q 57.90625 48.6875 55.421875 44.625 
Q 52.9375 40.578125 47.90625 38.09375 
Q 54.390625 36.1875 57.875 31.59375 
Q 61.375 27 61.375 20.75 
Q 61.375 15.71875 59.25 11.390625 
Q 57.125 7.078125 54 4.734375 
Q 50.875 2.390625 46.15625 1.1875 
Q 41.453125 0 34.625 0 
z
M 16.796875 41.5 
L 32.28125 41.5 
Q 38.578125 41.5 41.3125 42.328125 
Q 44.921875 43.40625 46.75 45.890625 
Q 48.578125 48.390625 48.578125 52.15625 
Q 48.578125 55.71875 46.875 58.421875 
Q 45.171875 61.140625 41.984375 62.140625 
Q 38.8125 63.140625 31.109375 63.140625 
L 16.796875 63.140625 
z
M 16.796875 8.453125 
L 34.625 8.453125 
Q 39.203125 8.453125 41.0625 8.796875 
Q 44.34375 9.375 46.53125 10.734375 
Q 48.734375 12.109375 50.140625 14.71875 
Q 51.5625 17.328125 51.5625 20.75 
Q 51.5625 24.75 49.515625 27.703125 
Q 47.46875 30.671875 43.828125 31.859375 
Q 40.1875 33.0625 33.34375 33.0625 
L 16.796875 33.0625 
z
" id="ArialMT-66"/>
      <path d="M 3.328125 25.921875 
Q 3.328125 40.328125 11.328125 47.265625 
Q 18.015625 53.03125 27.640625 53.03125 
Q 38.328125 53.03125 45.109375 46.015625 
Q 51.90625 39.015625 51.90625 26.65625 
Q 51.90625 16.65625 48.90625 10.90625 
Q 45.90625 5.171875 40.15625 2 
Q 34.421875 -1.171875 27.640625 -1.171875 
Q 16.75 -1.171875 10.03125 5.8125 
Q 3.328125 12.796875 3.328125 25.921875 
z
M 12.359375 25.921875 
Q 12.359375 15.96875 16.703125 11.015625 
Q 21.046875 6.0625 27.640625 6.0625 
Q 34.1875 6.0625 38.53125 11.03125 
Q 42.875 16.015625 42.875 26.21875 
Q 42.875 35.84375 38.5 40.796875 
Q 34.125 45.75 27.640625 45.75 
Q 21.046875 45.75 16.703125 40.8125 
Q 12.359375 35.890625 12.359375 25.921875 
z
" id="ArialMT-111"/>
      <path d="M 3.078125 15.484375 
L 11.765625 16.84375 
Q 12.5 11.625 15.84375 8.84375 
Q 19.1875 6.0625 25.203125 6.0625 
Q 31.25 6.0625 34.171875 8.515625 
Q 37.109375 10.984375 37.109375 14.3125 
Q 37.109375 17.28125 34.515625 19 
Q 32.71875 20.171875 25.53125 21.96875 
Q 15.875 24.421875 12.140625 26.203125 
Q 8.40625 27.984375 6.46875 31.125 
Q 4.546875 34.28125 4.546875 38.09375 
Q 4.546875 41.546875 6.125 44.5 
Q 7.71875 47.46875 10.453125 49.421875 
Q 12.5 50.921875 16.03125 51.96875 
Q 19.578125 53.03125 23.640625 53.03125 
Q 29.734375 53.03125 34.34375 51.265625 
Q 38.96875 49.515625 41.15625 46.5 
Q 43.359375 43.5 44.1875 38.484375 
L 35.59375 37.3125 
Q 35.015625 41.3125 32.203125 43.546875 
Q 29.390625 45.796875 24.265625 45.796875 
Q 18.21875 45.796875 15.625 43.796875 
Q 13.03125 41.796875 13.03125 39.109375 
Q 13.03125 37.40625 14.109375 36.03125 
Q 15.1875 34.625 17.484375 33.6875 
Q 18.796875 33.203125 25.25 31.453125 
Q 34.578125 28.953125 38.25 27.359375 
Q 41.9375 25.78125 44.03125 22.75 
Q 46.140625 19.734375 46.140625 15.234375 
Q 46.140625 10.84375 43.578125 6.953125 
Q 41.015625 3.078125 36.171875 0.953125 
Q 31.34375 -1.171875 25.25 -1.171875 
Q 15.140625 -1.171875 9.84375 3.03125 
Q 4.546875 7.234375 3.078125 15.484375 
z
" id="ArialMT-115"/>
      <path d="M 40.578125 0 
L 40.578125 7.625 
Q 34.515625 -1.171875 24.125 -1.171875 
Q 19.53125 -1.171875 15.546875 0.578125 
Q 11.578125 2.34375 9.640625 5 
Q 7.71875 7.671875 6.9375 11.53125 
Q 6.390625 14.109375 6.390625 19.734375 
L 6.390625 51.859375 
L 15.1875 51.859375 
L 15.1875 23.09375 
Q 15.1875 16.21875 15.71875 13.8125 
Q 16.546875 10.359375 19.234375 8.375 
Q 21.921875 6.390625 25.875 6.390625 
Q 29.828125 6.390625 33.296875 8.421875 
Q 36.765625 10.453125 38.203125 13.9375 
Q 39.65625 17.4375 39.65625 24.078125 
L 39.65625 51.859375 
L 48.4375 51.859375 
L 48.4375 0 
z
" id="ArialMT-117"/>
      <path d="M 25.78125 7.859375 
L 27.046875 0.09375 
Q 23.34375 -0.6875 20.40625 -0.6875 
Q 15.625 -0.6875 12.984375 0.828125 
Q 10.359375 2.34375 9.28125 4.8125 
Q 8.203125 7.28125 8.203125 15.1875 
L 8.203125 45.015625 
L 1.765625 45.015625 
L 1.765625 51.859375 
L 8.203125 51.859375 
L 8.203125 64.703125 
L 16.9375 69.96875 
L 16.9375 51.859375 
L 25.78125 51.859375 
L 25.78125 45.015625 
L 16.9375 45.015625 
L 16.9375 14.703125 
Q 16.9375 10.9375 17.40625 9.859375 
Q 17.875 8.796875 18.921875 8.15625 
Q 19.96875 7.515625 21.921875 7.515625 
Q 23.390625 7.515625 25.78125 7.859375 
z
" id="ArialMT-116"/>
      <path d="M 6.640625 61.46875 
L 6.640625 71.578125 
L 15.4375 71.578125 
L 15.4375 61.46875 
z
M 6.640625 0 
L 6.640625 51.859375 
L 15.4375 51.859375 
L 15.4375 0 
z
" id="ArialMT-105"/>
      <path d="M 6.59375 0 
L 6.59375 51.859375 
L 14.5 51.859375 
L 14.5 44.484375 
Q 20.21875 53.03125 31 53.03125 
Q 35.6875 53.03125 39.625 51.34375 
Q 43.5625 49.65625 45.515625 46.921875 
Q 47.46875 44.1875 48.25 40.4375 
Q 48.734375 37.984375 48.734375 31.890625 
L 48.734375 0 
L 39.9375 0 
L 39.9375 31.546875 
Q 39.9375 36.921875 38.90625 39.578125 
Q 37.890625 42.234375 35.28125 43.8125 
Q 32.671875 45.40625 29.15625 45.40625 
Q 23.53125 45.40625 19.453125 41.84375 
Q 15.375 38.28125 15.375 28.328125 
L 15.375 0 
z
" id="ArialMT-110"/>
      <path d="M 14.703125 0 
L 6.546875 0 
L 6.546875 71.578125 
L 15.328125 71.578125 
L 15.328125 46.046875 
Q 20.90625 53.03125 29.546875 53.03125 
Q 34.328125 53.03125 38.59375 51.09375 
Q 42.875 49.171875 45.625 45.671875 
Q 48.390625 42.1875 49.953125 37.25 
Q 51.515625 32.328125 51.515625 26.703125 
Q 51.515625 13.375 44.921875 6.09375 
Q 38.328125 -1.171875 29.109375 -1.171875 
Q 19.921875 -1.171875 14.703125 6.5 
z
M 14.59375 26.3125 
Q 14.59375 17 17.140625 12.84375 
Q 21.296875 6.0625 28.375 6.0625 
Q 34.125 6.0625 38.328125 11.0625 
Q 42.53125 16.0625 42.53125 25.984375 
Q 42.53125 36.140625 38.5 40.96875 
Q 34.46875 45.796875 28.765625 45.796875 
Q 23 45.796875 18.796875 40.796875 
Q 14.59375 35.796875 14.59375 26.3125 
z
" id="ArialMT-98"/>
      <path d="M 21.296875 -19.875 
L 1.90625 -19.875 
L 1.90625 -12.59375 
L 12.5 -12.59375 
L 12.5 64.3125 
L 1.90625 64.3125 
L 1.90625 71.578125 
L 21.296875 71.578125 
z
" id="ArialMT-93"/>
      <path d="M 23.390625 -21.046875 
Q 16.109375 -11.859375 11.078125 0.4375 
Q 6.0625 12.75 6.0625 25.921875 
Q 6.0625 37.546875 9.8125 48.1875 
Q 14.203125 60.546875 23.390625 72.796875 
L 29.6875 72.796875 
Q 23.78125 62.640625 21.875 58.296875 
Q 18.890625 51.5625 17.1875 44.234375 
Q 15.09375 35.109375 15.09375 25.875 
Q 15.09375 2.390625 29.6875 -21.046875 
z
" id="ArialMT-40"/>
      <path d="M 7.421875 0 
L 7.421875 71.578125 
L 21.6875 71.578125 
L 38.625 20.90625 
Q 40.96875 13.8125 42.046875 10.296875 
Q 43.265625 14.203125 45.84375 21.78125 
L 62.984375 71.578125 
L 75.734375 71.578125 
L 75.734375 0 
L 66.609375 0 
L 66.609375 59.90625 
L 45.796875 0 
L 37.25 0 
L 16.546875 60.9375 
L 16.546875 0 
z
" id="ArialMT-77"/>
      <path d="M 12.359375 -21.046875 
L 6.0625 -21.046875 
Q 20.65625 2.390625 20.65625 25.875 
Q 20.65625 35.0625 18.5625 44.09375 
Q 16.890625 51.421875 13.921875 58.15625 
Q 12.015625 62.546875 6.0625 72.796875 
L 12.359375 72.796875 
Q 21.53125 60.546875 25.921875 48.1875 
Q 29.6875 37.546875 29.6875 25.921875 
Q 29.6875 12.75 24.625 0.4375 
Q 19.578125 -11.859375 12.359375 -21.046875 
z
" id="ArialMT-41"/>
     </defs>
     <g style="fill:#262626;" transform="translate(237.020312 279.234531)scale(0.15 -0.15)">
      <use xlink:href="#ArialMT-91"/>
      <use x="27.783203" xlink:href="#ArialMT-66"/>
      <use x="94.482422" xlink:href="#ArialMT-111"/>
      <use x="150.097656" xlink:href="#ArialMT-115"/>
      <use x="200.097656" xlink:href="#ArialMT-117"/>
      <use x="255.712891" xlink:href="#ArialMT-116"/>
      <use x="283.496094" xlink:href="#ArialMT-105"/>
      <use x="305.712891" xlink:href="#ArialMT-110"/>
      <use x="361.328125" xlink:href="#ArialMT-105"/>
      <use x="383.544922" xlink:href="#ArialMT-98"/>
      <use x="439.160156" xlink:href="#ArialMT-93"/>
      <use x="466.943359" xlink:href="#ArialMT-40"/>
      <use x="500.244141" xlink:href="#ArialMT-77"/>
      <use x="583.544922" xlink:href="#ArialMT-41"/>
     </g>
    </g>
   </g>
   <g id="matplotlib.axis_2">
    <g id="ytick_1">
     <g id="text_6">
      <!-- 0 -->
      <g style="fill:#262626;" transform="translate(47.520313 248.593906)scale(0.1 -0.1)">
       <use xlink:href="#ArialMT-48"/>
      </g>
     </g>
    </g>
    <g id="ytick_2">
     <g id="text_7">
      <!-- 5000 -->
      <g style="fill:#262626;" transform="translate(30.8375 217.531049)scale(0.1 -0.1)">
       <use xlink:href="#ArialMT-53"/>
       <use x="55.615234" xlink:href="#ArialMT-48"/>
       <use x="111.230469" xlink:href="#ArialMT-48"/>
       <use x="166.845703" xlink:href="#ArialMT-48"/>
      </g>
     </g>
    </g>
    <g id="ytick_3">
     <g id="text_8">
      <!-- 10000 -->
      <g style="fill:#262626;" transform="translate(25.276563 186.468192)scale(0.1 -0.1)">
       <use xlink:href="#ArialMT-49"/>
       <use x="55.615234" xlink:href="#ArialMT-48"/>
       <use x="111.230469" xlink:href="#ArialMT-48"/>
       <use x="166.845703" xlink:href="#ArialMT-48"/>
       <use x="222.460938" xlink:href="#ArialMT-48"/>
      </g>
     </g>
    </g>
    <g id="ytick_4">
     <g id="text_9">
      <!-- 15000 -->
      <g style="fill:#262626;" transform="translate(25.276563 155.405335)scale(0.1 -0.1)">
       <use xlink:href="#ArialMT-49"/>
       <use x="55.615234" xlink:href="#ArialMT-53"/>
       <use x="111.230469" xlink:href="#ArialMT-48"/>
       <use x="166.845703" xlink:href="#ArialMT-48"/>
       <use x="222.460938" xlink:href="#ArialMT-48"/>
      </g>
     </g>
    </g>
    <g id="ytick_5">
     <g id="text_10">
      <!-- 20000 -->
      <defs>
       <path d="M 50.34375 8.453125 
L 50.34375 0 
L 3.03125 0 
Q 2.9375 3.171875 4.046875 6.109375 
Q 5.859375 10.9375 9.828125 15.625 
Q 13.8125 20.3125 21.34375 26.46875 
Q 33.015625 36.03125 37.109375 41.625 
Q 41.21875 47.21875 41.21875 52.203125 
Q 41.21875 57.421875 37.46875 61 
Q 33.734375 64.59375 27.734375 64.59375 
Q 21.390625 64.59375 17.578125 60.78125 
Q 13.765625 56.984375 13.71875 50.25 
L 4.6875 51.171875 
Q 5.609375 61.28125 11.65625 66.578125 
Q 17.71875 71.875 27.9375 71.875 
Q 38.234375 71.875 44.234375 66.15625 
Q 50.25 60.453125 50.25 52 
Q 50.25 47.703125 48.484375 43.546875 
Q 46.734375 39.40625 42.65625 34.8125 
Q 38.578125 30.21875 29.109375 22.21875 
Q 21.1875 15.578125 18.9375 13.203125 
Q 16.703125 10.84375 15.234375 8.453125 
z
" id="ArialMT-50"/>
      </defs>
      <g style="fill:#262626;" transform="translate(25.276563 124.342478)scale(0.1 -0.1)">
       <use xlink:href="#ArialMT-50"/>
       <use x="55.615234" xlink:href="#ArialMT-48"/>
       <use x="111.230469" xlink:href="#ArialMT-48"/>
       <use x="166.845703" xlink:href="#ArialMT-48"/>
       <use x="222.460938" xlink:href="#ArialMT-48"/>
      </g>
     </g>
    </g>
    <g id="ytick_6">
     <g id="text_11">
      <!-- 25000 -->
      <g style="fill:#262626;" transform="translate(25.276563 93.279621)scale(0.1 -0.1)">
       <use xlink:href="#ArialMT-50"/>
       <use x="55.615234" xlink:href="#ArialMT-53"/>
       <use x="111.230469" xlink:href="#ArialMT-48"/>
       <use x="166.845703" xlink:href="#ArialMT-48"/>
       <use x="222.460938" xlink:href="#ArialMT-48"/>
      </g>
     </g>
    </g>
    <g id="ytick_7">
     <g id="text_12">
      <!-- 30000 -->
      <defs>
       <path d="M 4.203125 18.890625 
L 12.984375 20.0625 
Q 14.5 12.59375 18.140625 9.296875 
Q 21.78125 6 27 6 
Q 33.203125 6 37.46875 10.296875 
Q 41.75 14.59375 41.75 20.953125 
Q 41.75 27 37.796875 30.921875 
Q 33.84375 34.859375 27.734375 34.859375 
Q 25.25 34.859375 21.53125 33.890625 
L 22.515625 41.609375 
Q 23.390625 41.5 23.921875 41.5 
Q 29.546875 41.5 34.03125 44.421875 
Q 38.53125 47.359375 38.53125 53.46875 
Q 38.53125 58.296875 35.25 61.46875 
Q 31.984375 64.65625 26.8125 64.65625 
Q 21.6875 64.65625 18.265625 61.421875 
Q 14.84375 58.203125 13.875 51.765625 
L 5.078125 53.328125 
Q 6.6875 62.15625 12.390625 67.015625 
Q 18.109375 71.875 26.609375 71.875 
Q 32.46875 71.875 37.390625 69.359375 
Q 42.328125 66.84375 44.9375 62.5 
Q 47.5625 58.15625 47.5625 53.265625 
Q 47.5625 48.640625 45.0625 44.828125 
Q 42.578125 41.015625 37.703125 38.765625 
Q 44.046875 37.3125 47.5625 32.6875 
Q 51.078125 28.078125 51.078125 21.140625 
Q 51.078125 11.765625 44.234375 5.25 
Q 37.40625 -1.265625 26.953125 -1.265625 
Q 17.53125 -1.265625 11.296875 4.34375 
Q 5.078125 9.96875 4.203125 18.890625 
z
" id="ArialMT-51"/>
      </defs>
      <g style="fill:#262626;" transform="translate(25.276563 62.216763)scale(0.1 -0.1)">
       <use xlink:href="#ArialMT-51"/>
       <use x="55.615234" xlink:href="#ArialMT-48"/>
       <use x="111.230469" xlink:href="#ArialMT-48"/>
       <use x="166.845703" xlink:href="#ArialMT-48"/>
       <use x="222.460938" xlink:href="#ArialMT-48"/>
      </g>
     </g>
    </g>
    <g id="ytick_8">
     <g id="text_13">
      <!-- 35000 -->
      <g style="fill:#262626;" transform="translate(25.276563 31.153906)scale(0.1 -0.1)">
       <use xlink:href="#ArialMT-51"/>
       <use x="55.615234" xlink:href="#ArialMT-53"/>
       <use x="111.230469" xlink:href="#ArialMT-48"/>
       <use x="166.845703" xlink:href="#ArialMT-48"/>
       <use x="222.460938" xlink:href="#ArialMT-48"/>
      </g>
     </g>
    </g>
    <g id="text_14">
     <!-- Fluorescence Intensity (rfu) -->
     <defs>
      <path d="M 8.203125 0 
L 8.203125 71.578125 
L 56.5 71.578125 
L 56.5 63.140625 
L 17.671875 63.140625 
L 17.671875 40.96875 
L 51.265625 40.96875 
L 51.265625 32.515625 
L 17.671875 32.515625 
L 17.671875 0 
z
" id="ArialMT-70"/>
      <path d="M 6.390625 0 
L 6.390625 71.578125 
L 15.1875 71.578125 
L 15.1875 0 
z
" id="ArialMT-108"/>
      <path d="M 6.5 0 
L 6.5 51.859375 
L 14.40625 51.859375 
L 14.40625 44 
Q 17.4375 49.515625 20 51.265625 
Q 22.5625 53.03125 25.640625 53.03125 
Q 30.078125 53.03125 34.671875 50.203125 
L 31.640625 42.046875 
Q 28.421875 43.953125 25.203125 43.953125 
Q 22.3125 43.953125 20.015625 42.21875 
Q 17.71875 40.484375 16.75 37.40625 
Q 15.28125 32.71875 15.28125 27.15625 
L 15.28125 0 
z
" id="ArialMT-114"/>
      <path d="M 42.09375 16.703125 
L 51.171875 15.578125 
Q 49.03125 7.625 43.21875 3.21875 
Q 37.40625 -1.171875 28.375 -1.171875 
Q 17 -1.171875 10.328125 5.828125 
Q 3.65625 12.84375 3.65625 25.484375 
Q 3.65625 38.578125 10.390625 45.796875 
Q 17.140625 53.03125 27.875 53.03125 
Q 38.28125 53.03125 44.875 45.953125 
Q 51.46875 38.875 51.46875 26.03125 
Q 51.46875 25.25 51.421875 23.6875 
L 12.75 23.6875 
Q 13.234375 15.140625 17.578125 10.59375 
Q 21.921875 6.0625 28.421875 6.0625 
Q 33.25 6.0625 36.671875 8.59375 
Q 40.09375 11.140625 42.09375 16.703125 
z
M 13.234375 30.90625 
L 42.1875 30.90625 
Q 41.609375 37.453125 38.875 40.71875 
Q 34.671875 45.796875 27.984375 45.796875 
Q 21.921875 45.796875 17.796875 41.75 
Q 13.671875 37.703125 13.234375 30.90625 
z
" id="ArialMT-101"/>
      <path d="M 40.4375 19 
L 49.078125 17.875 
Q 47.65625 8.9375 41.8125 3.875 
Q 35.984375 -1.171875 27.484375 -1.171875 
Q 16.84375 -1.171875 10.375 5.78125 
Q 3.90625 12.75 3.90625 25.734375 
Q 3.90625 34.125 6.6875 40.421875 
Q 9.46875 46.734375 15.15625 49.875 
Q 20.84375 53.03125 27.546875 53.03125 
Q 35.984375 53.03125 41.359375 48.75 
Q 46.734375 44.484375 48.25 36.625 
L 39.703125 35.296875 
Q 38.484375 40.53125 35.375 43.15625 
Q 32.28125 45.796875 27.875 45.796875 
Q 21.234375 45.796875 17.078125 41.03125 
Q 12.9375 36.28125 12.9375 25.984375 
Q 12.9375 15.53125 16.9375 10.796875 
Q 20.953125 6.0625 27.390625 6.0625 
Q 32.5625 6.0625 36.03125 9.234375 
Q 39.5 12.40625 40.4375 19 
z
" id="ArialMT-99"/>
      <path id="ArialMT-32"/>
      <path d="M 9.328125 0 
L 9.328125 71.578125 
L 18.796875 71.578125 
L 18.796875 0 
z
" id="ArialMT-73"/>
      <path d="M 6.203125 -19.96875 
L 5.21875 -11.71875 
Q 8.109375 -12.5 10.25 -12.5 
Q 13.1875 -12.5 14.9375 -11.515625 
Q 16.703125 -10.546875 17.828125 -8.796875 
Q 18.65625 -7.46875 20.515625 -2.25 
Q 20.75 -1.515625 21.296875 -0.09375 
L 1.609375 51.859375 
L 11.078125 51.859375 
L 21.875 21.828125 
Q 23.96875 16.109375 25.640625 9.8125 
Q 27.15625 15.875 29.25 21.625 
L 40.328125 51.859375 
L 49.125 51.859375 
L 29.390625 -0.875 
Q 26.21875 -9.421875 24.46875 -12.640625 
Q 22.125 -17 19.09375 -19.015625 
Q 16.0625 -21.046875 11.859375 -21.046875 
Q 9.328125 -21.046875 6.203125 -19.96875 
z
" id="ArialMT-121"/>
      <path d="M 8.6875 0 
L 8.6875 45.015625 
L 0.921875 45.015625 
L 0.921875 51.859375 
L 8.6875 51.859375 
L 8.6875 57.375 
Q 8.6875 62.59375 9.625 65.140625 
Q 10.890625 68.5625 14.078125 70.671875 
Q 17.28125 72.796875 23.046875 72.796875 
Q 26.765625 72.796875 31.25 71.921875 
L 29.9375 64.265625 
Q 27.203125 64.75 24.75 64.75 
Q 20.75 64.75 19.09375 63.03125 
Q 17.4375 61.328125 17.4375 56.640625 
L 17.4375 51.859375 
L 27.546875 51.859375 
L 27.546875 45.015625 
L 17.4375 45.015625 
L 17.4375 0 
z
" id="ArialMT-102"/>
     </defs>
     <g style="fill:#262626;" transform="translate(18.119531 227.156328)rotate(-90)scale(0.15 -0.15)">
      <use xlink:href="#ArialMT-70"/>
      <use x="61.083984" xlink:href="#ArialMT-108"/>
      <use x="83.300781" xlink:href="#ArialMT-117"/>
      <use x="138.916016" xlink:href="#ArialMT-111"/>
      <use x="194.53125" xlink:href="#ArialMT-114"/>
      <use x="227.832031" xlink:href="#ArialMT-101"/>
      <use x="283.447266" xlink:href="#ArialMT-115"/>
      <use x="333.447266" xlink:href="#ArialMT-99"/>
      <use x="383.447266" xlink:href="#ArialMT-101"/>
      <use x="439.0625" xlink:href="#ArialMT-110"/>
      <use x="494.677734" xlink:href="#ArialMT-99"/>
      <use x="544.677734" xlink:href="#ArialMT-101"/>
      <use x="600.292969" xlink:href="#ArialMT-32"/>
      <use x="628.076172" xlink:href="#ArialMT-73"/>
      <use x="655.859375" xlink:href="#ArialMT-110"/>
      <use x="711.474609" xlink:href="#ArialMT-116"/>
      <use x="739.257812" xlink:href="#ArialMT-101"/>
      <use x="794.873047" xlink:href="#ArialMT-110"/>
      <use x="850.488281" xlink:href="#ArialMT-115"/>
      <use x="900.488281" xlink:href="#ArialMT-105"/>
      <use x="922.705078" xlink:href="#ArialMT-116"/>
      <use x="950.488281" xlink:href="#ArialMT-121"/>
      <use x="1000.488281" xlink:href="#ArialMT-32"/>
      <use x="1028.271484" xlink:href="#ArialMT-40"/>
      <use x="1061.572266" xlink:href="#ArialMT-114"/>
      <use x="1094.873047" xlink:href="#ArialMT-102"/>
      <use x="1122.65625" xlink:href="#ArialMT-117"/>
      <use x="1178.271484" xlink:href="#ArialMT-41"/>
     </g>
    </g>
   </g>
   <g id="line2d_1">
    <path clip-path="url(#p3cffd46c2a)" d="M -1 241.635585 
L 79.684411 241.635361 
L 105.821958 241.653999 
L 131.959505 241.424134 
L 158.097053 241.765825 
L 184.2346 241.647786 
L 210.372148 241.467622 
L 236.509695 240.995466 
L 262.647242 240.181619 
L 288.78479 238.690602 
L 314.922337 236.677729 
L 341.059884 234.845021 
L 367.197432 233.304303 
L 393.334979 231.241729 
L 419.472527 229.104605 
L 442.635311 225.221747 
L 471.747621 220.03425 
" style="fill:none;stroke:#3b6d80;stroke-linecap:round;stroke-width:2;"/>
    <defs>
     <path d="M 0 3 
C 0.795609 3 1.55874 2.683901 2.12132 2.12132 
C 2.683901 1.55874 3 0.795609 3 0 
C 3 -0.795609 2.683901 -1.55874 2.12132 -2.12132 
C 1.55874 -2.683901 0.795609 -3 0 -3 
C -0.795609 -3 -1.55874 -2.683901 -2.12132 -2.12132 
C -2.683901 -1.55874 -3 -0.795609 -3 0 
C -3 0.795609 -2.683901 1.55874 -2.12132 2.12132 
C -1.55874 2.683901 -0.795609 3 0 3 
z
" id="m97af3e7c7f" style="stroke:#3b6d80;"/>
    </defs>
    <g clip-path="url(#p3cffd46c2a)">
     <use style="fill:#3b6d80;stroke:#3b6d80;" x="-1" xlink:href="#m97af3e7c7f" y="241.635585"/>
     <use style="fill:#3b6d80;stroke:#3b6d80;" x="79.684411" xlink:href="#m97af3e7c7f" y="241.635361"/>
     <use style="fill:#3b6d80;stroke:#3b6d80;" x="105.821958" xlink:href="#m97af3e7c7f" y="241.653999"/>
     <use style="fill:#3b6d80;stroke:#3b6d80;" x="131.959505" xlink:href="#m97af3e7c7f" y="241.424134"/>
     <use style="fill:#3b6d80;stroke:#3b6d80;" x="158.097053" xlink:href="#m97af3e7c7f" y="241.765825"/>
     <use style="fill:#3b6d80;stroke:#3b6d80;" x="184.2346" xlink:href="#m97af3e7c7f" y="241.647786"/>
     <use style="fill:#3b6d80;stroke:#3b6d80;" x="210.372148" xlink:href="#m97af3e7c7f" y="241.467622"/>
     <use style="fill:#3b6d80;stroke:#3b6d80;" x="236.509695" xlink:href="#m97af3e7c7f" y="240.995466"/>
     <use style="fill:#3b6d80;stroke:#3b6d80;" x="262.647242" xlink:href="#m97af3e7c7f" y="240.181619"/>
     <use style="fill:#3b6d80;stroke:#3b6d80;" x="288.78479" xlink:href="#m97af3e7c7f" y="238.690602"/>
     <use style="fill:#3b6d80;stroke:#3b6d80;" x="314.922337" xlink:href="#m97af3e7c7f" y="236.677729"/>
     <use style="fill:#3b6d80;stroke:#3b6d80;" x="341.059884" xlink:href="#m97af3e7c7f" y="234.845021"/>
     <use style="fill:#3b6d80;stroke:#3b6d80;" x="367.197432" xlink:href="#m97af3e7c7f" y="233.304303"/>
     <use style="fill:#3b6d80;stroke:#3b6d80;" x="393.334979" xlink:href="#m97af3e7c7f" y="231.241729"/>
     <use style="fill:#3b6d80;stroke:#3b6d80;" x="419.472527" xlink:href="#m97af3e7c7f" y="229.104605"/>
     <use style="fill:#3b6d80;stroke:#3b6d80;" x="442.635311" xlink:href="#m97af3e7c7f" y="225.221747"/>
     <use style="fill:#3b6d80;stroke:#3b6d80;" x="471.747621" xlink:href="#m97af3e7c7f" y="220.03425"/>
    </g>
   </g>
   <g id="line2d_2">
    <path clip-path="url(#p3cffd46c2a)" d="M -1 227.284514 
L 79.684411 227.284321 
L 105.821958 227.483123 
L 131.959505 227.129007 
L 158.097053 226.830803 
L 184.2346 226.271672 
L 210.372148 225.178259 
L 236.509695 223.600266 
L 262.647242 220.667933 
L 288.78479 216.573848 
L 314.922337 211.088147 
L 341.059884 203.763526 
L 367.197432 194.599983 
L 393.334979 179.932102 
L 419.472527 155.783837 
L 442.635311 116.94284 
L 471.747621 48.262863 
" style="fill:none;stroke:#43a6cc;stroke-linecap:round;stroke-width:2;"/>
    <defs>
     <path d="M 0 3 
C 0.795609 3 1.55874 2.683901 2.12132 2.12132 
C 2.683901 1.55874 3 0.795609 3 0 
C 3 -0.795609 2.683901 -1.55874 2.12132 -2.12132 
C 1.55874 -2.683901 0.795609 -3 0 -3 
C -0.795609 -3 -1.55874 -2.683901 -2.12132 -2.12132 
C -2.683901 -1.55874 -3 -0.795609 -3 0 
C -3 0.795609 -2.683901 1.55874 -2.12132 2.12132 
C -1.55874 2.683901 -0.795609 3 0 3 
z
" id="mf34d5144e0" style="stroke:#43a6cc;"/>
    </defs>
    <g clip-path="url(#p3cffd46c2a)">
     <use style="fill:#43a6cc;stroke:#43a6cc;" x="-1" xlink:href="#mf34d5144e0" y="227.284514"/>
     <use style="fill:#43a6cc;stroke:#43a6cc;" x="79.684411" xlink:href="#mf34d5144e0" y="227.284321"/>
     <use style="fill:#43a6cc;stroke:#43a6cc;" x="105.821958" xlink:href="#mf34d5144e0" y="227.483123"/>
     <use style="fill:#43a6cc;stroke:#43a6cc;" x="131.959505" xlink:href="#mf34d5144e0" y="227.129007"/>
     <use style="fill:#43a6cc;stroke:#43a6cc;" x="158.097053" xlink:href="#mf34d5144e0" y="226.830803"/>
     <use style="fill:#43a6cc;stroke:#43a6cc;" x="184.2346" xlink:href="#mf34d5144e0" y="226.271672"/>
     <use style="fill:#43a6cc;stroke:#43a6cc;" x="210.372148" xlink:href="#mf34d5144e0" y="225.178259"/>
     <use style="fill:#43a6cc;stroke:#43a6cc;" x="236.509695" xlink:href="#mf34d5144e0" y="223.600266"/>
     <use style="fill:#43a6cc;stroke:#43a6cc;" x="262.647242" xlink:href="#mf34d5144e0" y="220.667933"/>
     <use style="fill:#43a6cc;stroke:#43a6cc;" x="288.78479" xlink:href="#mf34d5144e0" y="216.573848"/>
     <use style="fill:#43a6cc;stroke:#43a6cc;" x="314.922337" xlink:href="#mf34d5144e0" y="211.088147"/>
     <use style="fill:#43a6cc;stroke:#43a6cc;" x="341.059884" xlink:href="#mf34d5144e0" y="203.763526"/>
     <use style="fill:#43a6cc;stroke:#43a6cc;" x="367.197432" xlink:href="#mf34d5144e0" y="194.599983"/>
     <use style="fill:#43a6cc;stroke:#43a6cc;" x="393.334979" xlink:href="#mf34d5144e0" y="179.932102"/>
     <use style="fill:#43a6cc;stroke:#43a6cc;" x="419.472527" xlink:href="#mf34d5144e0" y="155.783837"/>
     <use style="fill:#43a6cc;stroke:#43a6cc;" x="442.635311" xlink:href="#mf34d5144e0" y="116.94284"/>
     <use style="fill:#43a6cc;stroke:#43a6cc;" x="471.747621" xlink:href="#mf34d5144e0" y="48.262863"/>
    </g>
   </g>
   <g id="line2d_3">
    <path clip-path="url(#p3cffd46c2a)" d="M -1 240.256035 
L 79.684411 240.25617 
L 105.821958 240.355571 
L 131.959505 240.144344 
L 158.097053 239.852353 
L 184.2346 239.423686 
L 210.372148 238.473162 
L 236.509695 237.367325 
L 262.647242 235.609167 
L 288.78479 233.093075 
L 314.922337 231.198241 
L 341.059884 229.135667 
L 367.197432 226.50775 
L 393.334979 222.544129 
L 419.472527 215.971229 
L 442.635311 205.546534 
L 471.747621 187.660541 
" style="fill:none;stroke:#7cc4c3;stroke-linecap:round;stroke-width:2;"/>
    <defs>
     <path d="M 0 3 
C 0.795609 3 1.55874 2.683901 2.12132 2.12132 
C 2.683901 1.55874 3 0.795609 3 0 
C 3 -0.795609 2.683901 -1.55874 2.12132 -2.12132 
C 1.55874 -2.683901 0.795609 -3 0 -3 
C -0.795609 -3 -1.55874 -2.683901 -2.12132 -2.12132 
C -2.683901 -1.55874 -3 -0.795609 -3 0 
C -3 0.795609 -2.683901 1.55874 -2.12132 2.12132 
C -1.55874 2.683901 -0.795609 3 0 3 
z
" id="m33c48ec85b" style="stroke:#7cc4c3;"/>
    </defs>
    <g clip-path="url(#p3cffd46c2a)">
     <use style="fill:#7cc4c3;stroke:#7cc4c3;" x="-1" xlink:href="#m33c48ec85b" y="240.256035"/>
     <use style="fill:#7cc4c3;stroke:#7cc4c3;" x="79.684411" xlink:href="#m33c48ec85b" y="240.25617"/>
     <use style="fill:#7cc4c3;stroke:#7cc4c3;" x="105.821958" xlink:href="#m33c48ec85b" y="240.355571"/>
     <use style="fill:#7cc4c3;stroke:#7cc4c3;" x="131.959505" xlink:href="#m33c48ec85b" y="240.144344"/>
     <use style="fill:#7cc4c3;stroke:#7cc4c3;" x="158.097053" xlink:href="#m33c48ec85b" y="239.852353"/>
     <use style="fill:#7cc4c3;stroke:#7cc4c3;" x="184.2346" xlink:href="#m33c48ec85b" y="239.423686"/>
     <use style="fill:#7cc4c3;stroke:#7cc4c3;" x="210.372148" xlink:href="#m33c48ec85b" y="238.473162"/>
     <use style="fill:#7cc4c3;stroke:#7cc4c3;" x="236.509695" xlink:href="#m33c48ec85b" y="237.367325"/>
     <use style="fill:#7cc4c3;stroke:#7cc4c3;" x="262.647242" xlink:href="#m33c48ec85b" y="235.609167"/>
     <use style="fill:#7cc4c3;stroke:#7cc4c3;" x="288.78479" xlink:href="#m33c48ec85b" y="233.093075"/>
     <use style="fill:#7cc4c3;stroke:#7cc4c3;" x="314.922337" xlink:href="#m33c48ec85b" y="231.198241"/>
     <use style="fill:#7cc4c3;stroke:#7cc4c3;" x="341.059884" xlink:href="#m33c48ec85b" y="229.135667"/>
     <use style="fill:#7cc4c3;stroke:#7cc4c3;" x="367.197432" xlink:href="#m33c48ec85b" y="226.50775"/>
     <use style="fill:#7cc4c3;stroke:#7cc4c3;" x="393.334979" xlink:href="#m33c48ec85b" y="222.544129"/>
     <use style="fill:#7cc4c3;stroke:#7cc4c3;" x="419.472527" xlink:href="#m33c48ec85b" y="215.971229"/>
     <use style="fill:#7cc4c3;stroke:#7cc4c3;" x="442.635311" xlink:href="#m33c48ec85b" y="205.546534"/>
     <use style="fill:#7cc4c3;stroke:#7cc4c3;" x="471.747621" xlink:href="#m33c48ec85b" y="187.660541"/>
    </g>
   </g>
   <g id="line2d_4">
    <path clip-path="url(#p3cffd46c2a)" d="M -1 241.927645 
L 79.684411 241.927352 
L 105.821958 241.927352 
L 131.959505 241.840376 
L 158.097053 241.94599 
L 184.2346 241.914927 
L 210.372148 241.784463 
L 236.509695 241.784463 
L 262.647242 241.77825 
L 288.78479 241.529747 
L 314.922337 240.852577 
L 341.059884 239.547937 
L 367.197432 236.857894 
L 393.334979 232.881848 
L 419.472527 228.781551 
L 442.635311 223.003859 
L 471.747621 216.356408 
" style="fill:none;stroke:#3b6d80;stroke-dasharray:7.4,3.2;stroke-dashoffset:0;stroke-width:2;"/>
   </g>
   <g id="line2d_5">
    <path clip-path="url(#p3cffd46c2a)" d="M -1 227.893236 
L 79.684411 227.893153 
L 105.821958 228.073318 
L 131.959505 228.073318 
L 158.097053 228.160294 
L 184.2346 228.191357 
L 210.372148 227.886941 
L 236.509695 227.744051 
L 262.647242 226.955055 
L 288.78479 225.942406 
L 314.922337 223.917107 
L 341.059884 220.295178 
L 367.197432 214.647951 
L 393.334979 203.651699 
L 419.472527 185.970721 
L 442.635311 150.683315 
L 471.747621 84.54428 
" style="fill:none;stroke:#43a6cc;stroke-dasharray:7.4,3.2;stroke-dashoffset:0;stroke-width:2;"/>
   </g>
   <g id="line2d_6">
    <path clip-path="url(#p3cffd46c2a)" d="M -1 240.10699 
L 79.684411 240.107069 
L 105.821958 240.162982 
L 131.959505 240.212682 
L 158.097053 240.138131 
L 184.2346 240.113281 
L 210.372148 239.957967 
L 236.509695 239.647338 
L 262.647242 239.280797 
L 288.78479 237.280349 
L 314.922337 232.291654 
L 341.059884 231.055352 
L 367.197432 227.247046 
L 393.334979 219.009176 
L 419.472527 198.159786 
L 442.635311 164.195658 
L 471.747621 136.51244 
" style="fill:none;stroke:#7cc4c3;stroke-dasharray:7.4,3.2;stroke-dashoffset:0;stroke-width:2;"/>
   </g>
   <g id="patch_3">
    <path d="M 60.08125 245.015 
L 60.08125 27.575 
" style="fill:none;stroke:#262626;stroke-linecap:square;stroke-linejoin:miter;stroke-width:0.8;"/>
   </g>
   <g id="patch_4">
    <path d="M 60.08125 245.015 
L 506.48125 245.015 
" style="fill:none;stroke:#262626;stroke-linecap:square;stroke-linejoin:miter;stroke-width:0.8;"/>
   </g>
   <g id="text_15">
    <!-- Background fluorescence: Plate A 430.0 rfu -->
    <defs>
     <path d="M 40.4375 6.390625 
Q 35.546875 2.25 31.03125 0.53125 
Q 26.515625 -1.171875 21.34375 -1.171875 
Q 12.796875 -1.171875 8.203125 3 
Q 3.609375 7.171875 3.609375 13.671875 
Q 3.609375 17.484375 5.34375 20.625 
Q 7.078125 23.78125 9.890625 25.6875 
Q 12.703125 27.59375 16.21875 28.5625 
Q 18.796875 29.25 24.03125 29.890625 
Q 34.671875 31.15625 39.703125 32.90625 
Q 39.75 34.71875 39.75 35.203125 
Q 39.75 40.578125 37.25 42.78125 
Q 33.890625 45.75 27.25 45.75 
Q 21.046875 45.75 18.09375 43.578125 
Q 15.140625 41.40625 13.71875 35.890625 
L 5.125 37.0625 
Q 6.296875 42.578125 8.984375 45.96875 
Q 11.671875 49.359375 16.75 51.1875 
Q 21.828125 53.03125 28.515625 53.03125 
Q 35.15625 53.03125 39.296875 51.46875 
Q 43.453125 49.90625 45.40625 47.53125 
Q 47.359375 45.171875 48.140625 41.546875 
Q 48.578125 39.3125 48.578125 33.453125 
L 48.578125 21.734375 
Q 48.578125 9.46875 49.140625 6.21875 
Q 49.703125 2.984375 51.375 0 
L 42.1875 0 
Q 40.828125 2.734375 40.4375 6.390625 
z
M 39.703125 26.03125 
Q 34.90625 24.078125 25.34375 22.703125 
Q 19.921875 21.921875 17.671875 20.9375 
Q 15.4375 19.96875 14.203125 18.09375 
Q 12.984375 16.21875 12.984375 13.921875 
Q 12.984375 10.40625 15.640625 8.0625 
Q 18.3125 5.71875 23.4375 5.71875 
Q 28.515625 5.71875 32.46875 7.9375 
Q 36.421875 10.15625 38.28125 14.015625 
Q 39.703125 17 39.703125 22.796875 
z
" id="ArialMT-97"/>
     <path d="M 6.640625 0 
L 6.640625 71.578125 
L 15.4375 71.578125 
L 15.4375 30.765625 
L 36.234375 51.859375 
L 47.609375 51.859375 
L 27.78125 32.625 
L 49.609375 0 
L 38.765625 0 
L 21.625 26.515625 
L 15.4375 20.5625 
L 15.4375 0 
z
" id="ArialMT-107"/>
     <path d="M 4.984375 -4.296875 
L 13.53125 -5.5625 
Q 14.0625 -9.515625 16.5 -11.328125 
Q 19.78125 -13.765625 25.4375 -13.765625 
Q 31.546875 -13.765625 34.859375 -11.328125 
Q 38.1875 -8.890625 39.359375 -4.5 
Q 40.046875 -1.8125 39.984375 6.78125 
Q 34.234375 0 25.640625 0 
Q 14.9375 0 9.078125 7.71875 
Q 3.21875 15.4375 3.21875 26.21875 
Q 3.21875 33.640625 5.90625 39.90625 
Q 8.59375 46.1875 13.6875 49.609375 
Q 18.796875 53.03125 25.6875 53.03125 
Q 34.859375 53.03125 40.828125 45.609375 
L 40.828125 51.859375 
L 48.921875 51.859375 
L 48.921875 7.03125 
Q 48.921875 -5.078125 46.453125 -10.125 
Q 44 -15.1875 38.640625 -18.109375 
Q 33.296875 -21.046875 25.484375 -21.046875 
Q 16.21875 -21.046875 10.5 -16.875 
Q 4.78125 -12.703125 4.984375 -4.296875 
z
M 12.25 26.859375 
Q 12.25 16.65625 16.296875 11.96875 
Q 20.359375 7.28125 26.46875 7.28125 
Q 32.515625 7.28125 36.609375 11.9375 
Q 40.71875 16.609375 40.71875 26.5625 
Q 40.71875 36.078125 36.5 40.90625 
Q 32.28125 45.75 26.3125 45.75 
Q 20.453125 45.75 16.34375 40.984375 
Q 12.25 36.234375 12.25 26.859375 
z
" id="ArialMT-103"/>
     <path d="M 40.234375 0 
L 40.234375 6.546875 
Q 35.296875 -1.171875 25.734375 -1.171875 
Q 19.53125 -1.171875 14.328125 2.25 
Q 9.125 5.671875 6.265625 11.796875 
Q 3.421875 17.921875 3.421875 25.875 
Q 3.421875 33.640625 6 39.96875 
Q 8.59375 46.296875 13.765625 49.65625 
Q 18.953125 53.03125 25.34375 53.03125 
Q 30.03125 53.03125 33.6875 51.046875 
Q 37.359375 49.078125 39.65625 45.90625 
L 39.65625 71.578125 
L 48.390625 71.578125 
L 48.390625 0 
z
M 12.453125 25.875 
Q 12.453125 15.921875 16.640625 10.984375 
Q 20.84375 6.0625 26.5625 6.0625 
Q 32.328125 6.0625 36.34375 10.765625 
Q 40.375 15.484375 40.375 25.140625 
Q 40.375 35.796875 36.265625 40.765625 
Q 32.171875 45.75 26.171875 45.75 
Q 20.3125 45.75 16.375 40.96875 
Q 12.453125 36.1875 12.453125 25.875 
z
" id="ArialMT-100"/>
     <path d="M 9.03125 41.84375 
L 9.03125 51.859375 
L 19.046875 51.859375 
L 19.046875 41.84375 
z
M 9.03125 0 
L 9.03125 10.015625 
L 19.046875 10.015625 
L 19.046875 0 
z
" id="ArialMT-58"/>
     <path d="M 7.71875 0 
L 7.71875 71.578125 
L 34.71875 71.578125 
Q 41.84375 71.578125 45.609375 70.90625 
Q 50.875 70.015625 54.4375 67.546875 
Q 58.015625 65.09375 60.1875 60.640625 
Q 62.359375 56.203125 62.359375 50.875 
Q 62.359375 41.75 56.546875 35.421875 
Q 50.734375 29.109375 35.546875 29.109375 
L 17.1875 29.109375 
L 17.1875 0 
z
M 17.1875 37.546875 
L 35.6875 37.546875 
Q 44.875 37.546875 48.734375 40.96875 
Q 52.59375 44.390625 52.59375 50.59375 
Q 52.59375 55.078125 50.3125 58.265625 
Q 48.046875 61.46875 44.34375 62.5 
Q 41.9375 63.140625 35.5 63.140625 
L 17.1875 63.140625 
z
" id="ArialMT-80"/>
     <path d="M -0.140625 0 
L 27.34375 71.578125 
L 37.546875 71.578125 
L 66.84375 0 
L 56.0625 0 
L 47.703125 21.6875 
L 17.78125 21.6875 
L 9.90625 0 
z
M 20.515625 29.390625 
L 44.78125 29.390625 
L 37.3125 49.21875 
Q 33.890625 58.25 32.234375 64.0625 
Q 30.859375 57.171875 28.375 50.390625 
z
" id="ArialMT-65"/>
     <path d="M 32.328125 0 
L 32.328125 17.140625 
L 1.265625 17.140625 
L 1.265625 25.203125 
L 33.9375 71.578125 
L 41.109375 71.578125 
L 41.109375 25.203125 
L 50.78125 25.203125 
L 50.78125 17.140625 
L 41.109375 17.140625 
L 41.109375 0 
z
M 32.328125 25.203125 
L 32.328125 57.46875 
L 9.90625 25.203125 
z
" id="ArialMT-52"/>
     <path d="M 9.078125 0 
L 9.078125 10.015625 
L 19.09375 10.015625 
L 19.09375 0 
z
" id="ArialMT-46"/>
    </defs>
    <g style="fill:#262626;" transform="translate(104.013224 176.676714)scale(0.1 -0.1)">
     <use xlink:href="#ArialMT-66"/>
     <use x="66.699219" xlink:href="#ArialMT-97"/>
     <use x="122.314453" xlink:href="#ArialMT-99"/>
     <use x="172.314453" xlink:href="#ArialMT-107"/>
     <use x="222.314453" xlink:href="#ArialMT-103"/>
     <use x="277.929688" xlink:href="#ArialMT-114"/>
     <use x="311.230469" xlink:href="#ArialMT-111"/>
     <use x="366.845703" xlink:href="#ArialMT-117"/>
     <use x="422.460938" xlink:href="#ArialMT-110"/>
     <use x="478.076172" xlink:href="#ArialMT-100"/>
     <use x="533.691406" xlink:href="#ArialMT-32"/>
     <use x="561.474609" xlink:href="#ArialMT-102"/>
     <use x="589.257812" xlink:href="#ArialMT-108"/>
     <use x="611.474609" xlink:href="#ArialMT-117"/>
     <use x="667.089844" xlink:href="#ArialMT-111"/>
     <use x="722.705078" xlink:href="#ArialMT-114"/>
     <use x="756.005859" xlink:href="#ArialMT-101"/>
     <use x="811.621094" xlink:href="#ArialMT-115"/>
     <use x="861.621094" xlink:href="#ArialMT-99"/>
     <use x="911.621094" xlink:href="#ArialMT-101"/>
     <use x="967.236328" xlink:href="#ArialMT-110"/>
     <use x="1022.851562" xlink:href="#ArialMT-99"/>
     <use x="1072.851562" xlink:href="#ArialMT-101"/>
     <use x="1128.466797" xlink:href="#ArialMT-58"/>
     <use x="1156.25" xlink:href="#ArialMT-32"/>
     <use x="1184.033203" xlink:href="#ArialMT-80"/>
     <use x="1250.732422" xlink:href="#ArialMT-108"/>
     <use x="1272.949219" xlink:href="#ArialMT-97"/>
     <use x="1328.564453" xlink:href="#ArialMT-116"/>
     <use x="1356.347656" xlink:href="#ArialMT-101"/>
     <use x="1411.962891" xlink:href="#ArialMT-32"/>
     <use x="1439.667969" xlink:href="#ArialMT-65"/>
     <use x="1506.289062" xlink:href="#ArialMT-32"/>
     <use x="1534.072266" xlink:href="#ArialMT-52"/>
     <use x="1589.6875" xlink:href="#ArialMT-51"/>
     <use x="1645.302734" xlink:href="#ArialMT-48"/>
     <use x="1700.917969" xlink:href="#ArialMT-46"/>
     <use x="1728.701172" xlink:href="#ArialMT-48"/>
     <use x="1784.316406" xlink:href="#ArialMT-32"/>
     <use x="1812.099609" xlink:href="#ArialMT-114"/>
     <use x="1845.400391" xlink:href="#ArialMT-102"/>
     <use x="1873.183594" xlink:href="#ArialMT-117"/>
    </g>
   </g>
   <g id="text_16">
    <!-- Background fluorescence: Plate B 2737.0 rfu -->
    <g style="fill:#262626;" transform="translate(104.013224 139.401286)scale(0.1 -0.1)">
     <use xlink:href="#ArialMT-66"/>
     <use x="66.699219" xlink:href="#ArialMT-97"/>
     <use x="122.314453" xlink:href="#ArialMT-99"/>
     <use x="172.314453" xlink:href="#ArialMT-107"/>
     <use x="222.314453" xlink:href="#ArialMT-103"/>
     <use x="277.929688" xlink:href="#ArialMT-114"/>
     <use x="311.230469" xlink:href="#ArialMT-111"/>
     <use x="366.845703" xlink:href="#ArialMT-117"/>
     <use x="422.460938" xlink:href="#ArialMT-110"/>
     <use x="478.076172" xlink:href="#ArialMT-100"/>
     <use x="533.691406" xlink:href="#ArialMT-32"/>
     <use x="561.474609" xlink:href="#ArialMT-102"/>
     <use x="589.257812" xlink:href="#ArialMT-108"/>
     <use x="611.474609" xlink:href="#ArialMT-117"/>
     <use x="667.089844" xlink:href="#ArialMT-111"/>
     <use x="722.705078" xlink:href="#ArialMT-114"/>
     <use x="756.005859" xlink:href="#ArialMT-101"/>
     <use x="811.621094" xlink:href="#ArialMT-115"/>
     <use x="861.621094" xlink:href="#ArialMT-99"/>
     <use x="911.621094" xlink:href="#ArialMT-101"/>
     <use x="967.236328" xlink:href="#ArialMT-110"/>
     <use x="1022.851562" xlink:href="#ArialMT-99"/>
     <use x="1072.851562" xlink:href="#ArialMT-101"/>
     <use x="1128.466797" xlink:href="#ArialMT-58"/>
     <use x="1156.25" xlink:href="#ArialMT-32"/>
     <use x="1184.033203" xlink:href="#ArialMT-80"/>
     <use x="1250.732422" xlink:href="#ArialMT-108"/>
     <use x="1272.949219" xlink:href="#ArialMT-97"/>
     <use x="1328.564453" xlink:href="#ArialMT-116"/>
     <use x="1356.347656" xlink:href="#ArialMT-101"/>
     <use x="1411.962891" xlink:href="#ArialMT-32"/>
     <use x="1439.746094" xlink:href="#ArialMT-66"/>
     <use x="1506.445312" xlink:href="#ArialMT-32"/>
     <use x="1534.228516" xlink:href="#ArialMT-50"/>
     <use x="1589.84375" xlink:href="#ArialMT-55"/>
     <use x="1645.458984" xlink:href="#ArialMT-51"/>
     <use x="1701.074219" xlink:href="#ArialMT-55"/>
     <use x="1756.689453" xlink:href="#ArialMT-46"/>
     <use x="1784.472656" xlink:href="#ArialMT-48"/>
     <use x="1840.087891" xlink:href="#ArialMT-32"/>
     <use x="1867.871094" xlink:href="#ArialMT-114"/>
     <use x="1901.171875" xlink:href="#ArialMT-102"/>
     <use x="1928.955078" xlink:href="#ArialMT-117"/>
    </g>
   </g>
   <g id="patch_5">
    <path d="M 101.856361 144.660315 
Q 86.230901 179.071163 70.605441 213.482011 
L 74.247538 215.135834 
Q 69.035584 219.357835 63.823631 223.579836 
Q 63.572439 216.877101 63.321247 210.174366 
L 66.963344 211.828189 
Q 82.588804 177.41734 98.214264 143.006492 
L 101.856361 144.660315 
z
" style="stroke:#ffffff;stroke-linecap:round;"/>
   </g>
   <g id="text_17">
    <!-- Background fluorescence: Plate C 808.0 rfu -->
    <defs>
     <path d="M 58.796875 25.09375 
L 68.265625 22.703125 
Q 65.28125 11.03125 57.546875 4.90625 
Q 49.8125 -1.21875 38.625 -1.21875 
Q 27.046875 -1.21875 19.796875 3.484375 
Q 12.546875 8.203125 8.765625 17.140625 
Q 4.984375 26.078125 4.984375 36.328125 
Q 4.984375 47.515625 9.25 55.828125 
Q 13.53125 64.15625 21.40625 68.46875 
Q 29.296875 72.796875 38.765625 72.796875 
Q 49.515625 72.796875 56.828125 67.328125 
Q 64.15625 61.859375 67.046875 51.953125 
L 57.71875 49.75 
Q 55.21875 57.5625 50.484375 61.125 
Q 45.75 64.703125 38.578125 64.703125 
Q 30.328125 64.703125 24.78125 60.734375 
Q 19.234375 56.78125 16.984375 50.109375 
Q 14.75 43.453125 14.75 36.375 
Q 14.75 27.25 17.40625 20.4375 
Q 20.0625 13.625 25.671875 10.25 
Q 31.296875 6.890625 37.84375 6.890625 
Q 45.796875 6.890625 51.3125 11.46875 
Q 56.84375 16.0625 58.796875 25.09375 
z
" id="ArialMT-67"/>
    </defs>
    <g style="fill:#262626;" transform="translate(104.013224 189.101857)scale(0.1 -0.1)">
     <use xlink:href="#ArialMT-66"/>
     <use x="66.699219" xlink:href="#ArialMT-97"/>
     <use x="122.314453" xlink:href="#ArialMT-99"/>
     <use x="172.314453" xlink:href="#ArialMT-107"/>
     <use x="222.314453" xlink:href="#ArialMT-103"/>
     <use x="277.929688" xlink:href="#ArialMT-114"/>
     <use x="311.230469" xlink:href="#ArialMT-111"/>
     <use x="366.845703" xlink:href="#ArialMT-117"/>
     <use x="422.460938" xlink:href="#ArialMT-110"/>
     <use x="478.076172" xlink:href="#ArialMT-100"/>
     <use x="533.691406" xlink:href="#ArialMT-32"/>
     <use x="561.474609" xlink:href="#ArialMT-102"/>
     <use x="589.257812" xlink:href="#ArialMT-108"/>
     <use x="611.474609" xlink:href="#ArialMT-117"/>
     <use x="667.089844" xlink:href="#ArialMT-111"/>
     <use x="722.705078" xlink:href="#ArialMT-114"/>
     <use x="756.005859" xlink:href="#ArialMT-101"/>
     <use x="811.621094" xlink:href="#ArialMT-115"/>
     <use x="861.621094" xlink:href="#ArialMT-99"/>
     <use x="911.621094" xlink:href="#ArialMT-101"/>
     <use x="967.236328" xlink:href="#ArialMT-110"/>
     <use x="1022.851562" xlink:href="#ArialMT-99"/>
     <use x="1072.851562" xlink:href="#ArialMT-101"/>
     <use x="1128.466797" xlink:href="#ArialMT-58"/>
     <use x="1156.25" xlink:href="#ArialMT-32"/>
     <use x="1184.033203" xlink:href="#ArialMT-80"/>
     <use x="1250.732422" xlink:href="#ArialMT-108"/>
     <use x="1272.949219" xlink:href="#ArialMT-97"/>
     <use x="1328.564453" xlink:href="#ArialMT-116"/>
     <use x="1356.347656" xlink:href="#ArialMT-101"/>
     <use x="1411.962891" xlink:href="#ArialMT-32"/>
     <use x="1439.746094" xlink:href="#ArialMT-67"/>
     <use x="1511.962891" xlink:href="#ArialMT-32"/>
     <use x="1539.746094" xlink:href="#ArialMT-56"/>
     <use x="1595.361328" xlink:href="#ArialMT-48"/>
     <use x="1650.976562" xlink:href="#ArialMT-56"/>
     <use x="1706.591797" xlink:href="#ArialMT-46"/>
     <use x="1734.375" xlink:href="#ArialMT-48"/>
     <use x="1789.990234" xlink:href="#ArialMT-32"/>
     <use x="1817.773438" xlink:href="#ArialMT-114"/>
     <use x="1851.074219" xlink:href="#ArialMT-102"/>
     <use x="1878.857422" xlink:href="#ArialMT-117"/>
    </g>
   </g>
   <g id="patch_6">
    <path d="M 102.040288 180.812292 
Q 89.14097 204.058053 76.241651 227.303814 
L 79.739237 229.244661 
Q 74.204606 233.035712 68.669974 236.826763 
Q 68.958226 230.124441 69.246478 223.422118 
L 72.744065 225.362966 
Q 85.643383 202.117205 98.542702 178.871444 
L 102.040288 180.812292 
z
" style="stroke:#ffffff;stroke-linecap:round;"/>
   </g>
   <g id="text_18">
    <!-- p38:Bosutinib -->
    <defs>
     <path d="M 6.59375 -19.875 
L 6.59375 51.859375 
L 14.59375 51.859375 
L 14.59375 45.125 
Q 17.4375 49.078125 21 51.046875 
Q 24.5625 53.03125 29.640625 53.03125 
Q 36.28125 53.03125 41.359375 49.609375 
Q 46.4375 46.1875 49.015625 39.953125 
Q 51.609375 33.734375 51.609375 26.3125 
Q 51.609375 18.359375 48.75 11.984375 
Q 45.90625 5.609375 40.453125 2.21875 
Q 35.015625 -1.171875 29 -1.171875 
Q 24.609375 -1.171875 21.109375 0.6875 
Q 17.625 2.546875 15.375 5.375 
L 15.375 -19.875 
z
M 14.546875 25.640625 
Q 14.546875 15.625 18.59375 10.84375 
Q 22.65625 6.0625 28.421875 6.0625 
Q 34.28125 6.0625 38.453125 11.015625 
Q 42.625 15.96875 42.625 26.375 
Q 42.625 36.28125 38.546875 41.203125 
Q 34.46875 46.140625 28.8125 46.140625 
Q 23.1875 46.140625 18.859375 40.890625 
Q 14.546875 35.640625 14.546875 25.640625 
z
" id="ArialMT-112"/>
    </defs>
    <g style="fill:#262626;" transform="translate(222.684375 21.575)scale(0.2 -0.2)">
     <use xlink:href="#ArialMT-112"/>
     <use x="55.615234" xlink:href="#ArialMT-51"/>
     <use x="111.230469" xlink:href="#ArialMT-56"/>
     <use x="166.845703" xlink:href="#ArialMT-58"/>
     <use x="194.628906" xlink:href="#ArialMT-66"/>
     <use x="261.328125" xlink:href="#ArialMT-111"/>
     <use x="316.943359" xlink:href="#ArialMT-115"/>
     <use x="366.943359" xlink:href="#ArialMT-117"/>
     <use x="422.558594" xlink:href="#ArialMT-116"/>
     <use x="450.341797" xlink:href="#ArialMT-105"/>
     <use x="472.558594" xlink:href="#ArialMT-110"/>
     <use x="528.173828" xlink:href="#ArialMT-105"/>
     <use x="550.390625" xlink:href="#ArialMT-98"/>
    </g>
   </g>
   <g id="legend_1">
    <g id="patch_7">
     <path d="M 67.08125 120.56875 
L 168.003125 120.56875 
Q 170.003125 120.56875 170.003125 118.56875 
L 170.003125 34.575 
Q 170.003125 32.575 168.003125 32.575 
L 67.08125 32.575 
Q 65.08125 32.575 65.08125 34.575 
L 65.08125 118.56875 
Q 65.08125 120.56875 67.08125 120.56875 
z
" style="fill:#ffffff;opacity:0.8;stroke:#cccccc;stroke-linejoin:miter;"/>
    </g>
    <g id="line2d_7">
     <path d="M 69.08125 40.232812 
L 89.08125 40.232812 
" style="fill:none;stroke:#3b6d80;stroke-linecap:round;stroke-width:2;"/>
    </g>
    <g id="line2d_8">
     <g>
      <use style="fill:#3b6d80;stroke:#3b6d80;" x="79.08125" xlink:href="#m97af3e7c7f" y="40.232812"/>
     </g>
    </g>
    <g id="text_19">
     <!-- Plate A, protein -->
     <defs>
      <path d="M 8.890625 0 
L 8.890625 10.015625 
L 18.890625 10.015625 
L 18.890625 0 
Q 18.890625 -5.515625 16.9375 -8.90625 
Q 14.984375 -12.3125 10.75 -14.15625 
L 8.296875 -10.40625 
Q 11.078125 -9.1875 12.390625 -6.8125 
Q 13.71875 -4.4375 13.875 0 
z
" id="ArialMT-44"/>
     </defs>
     <g style="fill:#262626;" transform="translate(97.08125 43.732812)scale(0.1 -0.1)">
      <use xlink:href="#ArialMT-80"/>
      <use x="66.699219" xlink:href="#ArialMT-108"/>
      <use x="88.916016" xlink:href="#ArialMT-97"/>
      <use x="144.53125" xlink:href="#ArialMT-116"/>
      <use x="172.314453" xlink:href="#ArialMT-101"/>
      <use x="227.929688" xlink:href="#ArialMT-32"/>
      <use x="255.634766" xlink:href="#ArialMT-65"/>
      <use x="322.333984" xlink:href="#ArialMT-44"/>
      <use x="350.117188" xlink:href="#ArialMT-32"/>
      <use x="377.900391" xlink:href="#ArialMT-112"/>
      <use x="433.515625" xlink:href="#ArialMT-114"/>
      <use x="466.816406" xlink:href="#ArialMT-111"/>
      <use x="522.431641" xlink:href="#ArialMT-116"/>
      <use x="550.214844" xlink:href="#ArialMT-101"/>
      <use x="605.830078" xlink:href="#ArialMT-105"/>
      <use x="628.046875" xlink:href="#ArialMT-110"/>
     </g>
    </g>
    <g id="line2d_9">
     <path d="M 69.08125 54.378125 
L 89.08125 54.378125 
" style="fill:none;stroke:#3b6d80;stroke-dasharray:7.4,3.2;stroke-dashoffset:0;stroke-width:2;"/>
    </g>
    <g id="line2d_10"/>
    <g id="text_20">
     <!-- Plate A, buffer -->
     <g style="fill:#262626;" transform="translate(97.08125 57.878125)scale(0.1 -0.1)">
      <use xlink:href="#ArialMT-80"/>
      <use x="66.699219" xlink:href="#ArialMT-108"/>
      <use x="88.916016" xlink:href="#ArialMT-97"/>
      <use x="144.53125" xlink:href="#ArialMT-116"/>
      <use x="172.314453" xlink:href="#ArialMT-101"/>
      <use x="227.929688" xlink:href="#ArialMT-32"/>
      <use x="255.634766" xlink:href="#ArialMT-65"/>
      <use x="322.333984" xlink:href="#ArialMT-44"/>
      <use x="350.117188" xlink:href="#ArialMT-32"/>
      <use x="377.900391" xlink:href="#ArialMT-98"/>
      <use x="433.515625" xlink:href="#ArialMT-117"/>
      <use x="489.130859" xlink:href="#ArialMT-102"/>
      <use x="516.898438" xlink:href="#ArialMT-102"/>
      <use x="544.681641" xlink:href="#ArialMT-101"/>
      <use x="600.296875" xlink:href="#ArialMT-114"/>
     </g>
    </g>
    <g id="line2d_11">
     <path d="M 69.08125 68.523438 
L 89.08125 68.523438 
" style="fill:none;stroke:#43a6cc;stroke-linecap:round;stroke-width:2;"/>
    </g>
    <g id="line2d_12">
     <g>
      <use style="fill:#43a6cc;stroke:#43a6cc;" x="79.08125" xlink:href="#mf34d5144e0" y="68.523438"/>
     </g>
    </g>
    <g id="text_21">
     <!-- Plate B, protein -->
     <g style="fill:#262626;" transform="translate(97.08125 72.023438)scale(0.1 -0.1)">
      <use xlink:href="#ArialMT-80"/>
      <use x="66.699219" xlink:href="#ArialMT-108"/>
      <use x="88.916016" xlink:href="#ArialMT-97"/>
      <use x="144.53125" xlink:href="#ArialMT-116"/>
      <use x="172.314453" xlink:href="#ArialMT-101"/>
      <use x="227.929688" xlink:href="#ArialMT-32"/>
      <use x="255.712891" xlink:href="#ArialMT-66"/>
      <use x="322.412109" xlink:href="#ArialMT-44"/>
      <use x="350.195312" xlink:href="#ArialMT-32"/>
      <use x="377.978516" xlink:href="#ArialMT-112"/>
      <use x="433.59375" xlink:href="#ArialMT-114"/>
      <use x="466.894531" xlink:href="#ArialMT-111"/>
      <use x="522.509766" xlink:href="#ArialMT-116"/>
      <use x="550.292969" xlink:href="#ArialMT-101"/>
      <use x="605.908203" xlink:href="#ArialMT-105"/>
      <use x="628.125" xlink:href="#ArialMT-110"/>
     </g>
    </g>
    <g id="line2d_13">
     <path d="M 69.08125 82.66875 
L 89.08125 82.66875 
" style="fill:none;stroke:#43a6cc;stroke-dasharray:7.4,3.2;stroke-dashoffset:0;stroke-width:2;"/>
    </g>
    <g id="line2d_14"/>
    <g id="text_22">
     <!-- Plate B, buffer -->
     <g style="fill:#262626;" transform="translate(97.08125 86.16875)scale(0.1 -0.1)">
      <use xlink:href="#ArialMT-80"/>
      <use x="66.699219" xlink:href="#ArialMT-108"/>
      <use x="88.916016" xlink:href="#ArialMT-97"/>
      <use x="144.53125" xlink:href="#ArialMT-116"/>
      <use x="172.314453" xlink:href="#ArialMT-101"/>
      <use x="227.929688" xlink:href="#ArialMT-32"/>
      <use x="255.712891" xlink:href="#ArialMT-66"/>
      <use x="322.412109" xlink:href="#ArialMT-44"/>
      <use x="350.195312" xlink:href="#ArialMT-32"/>
      <use x="377.978516" xlink:href="#ArialMT-98"/>
      <use x="433.59375" xlink:href="#ArialMT-117"/>
      <use x="489.208984" xlink:href="#ArialMT-102"/>
      <use x="516.976562" xlink:href="#ArialMT-102"/>
      <use x="544.759766" xlink:href="#ArialMT-101"/>
      <use x="600.375" xlink:href="#ArialMT-114"/>
     </g>
    </g>
    <g id="line2d_15">
     <path d="M 69.08125 96.935937 
L 89.08125 96.935937 
" style="fill:none;stroke:#7cc4c3;stroke-linecap:round;stroke-width:2;"/>
    </g>
    <g id="line2d_16">
     <g>
      <use style="fill:#7cc4c3;stroke:#7cc4c3;" x="79.08125" xlink:href="#m33c48ec85b" y="96.935937"/>
     </g>
    </g>
    <g id="text_23">
     <!-- Plate C, protein -->
     <g style="fill:#262626;" transform="translate(97.08125 100.435937)scale(0.1 -0.1)">
      <use xlink:href="#ArialMT-80"/>
      <use x="66.699219" xlink:href="#ArialMT-108"/>
      <use x="88.916016" xlink:href="#ArialMT-97"/>
      <use x="144.53125" xlink:href="#ArialMT-116"/>
      <use x="172.314453" xlink:href="#ArialMT-101"/>
      <use x="227.929688" xlink:href="#ArialMT-32"/>
      <use x="255.712891" xlink:href="#ArialMT-67"/>
      <use x="327.929688" xlink:href="#ArialMT-44"/>
      <use x="355.712891" xlink:href="#ArialMT-32"/>
      <use x="383.496094" xlink:href="#ArialMT-112"/>
      <use x="439.111328" xlink:href="#ArialMT-114"/>
      <use x="472.412109" xlink:href="#ArialMT-111"/>
      <use x="528.027344" xlink:href="#ArialMT-116"/>
      <use x="555.810547" xlink:href="#ArialMT-101"/>
      <use x="611.425781" xlink:href="#ArialMT-105"/>
      <use x="633.642578" xlink:href="#ArialMT-110"/>
     </g>
    </g>
    <g id="line2d_17">
     <path d="M 69.08125 111.08125 
L 89.08125 111.08125 
" style="fill:none;stroke:#7cc4c3;stroke-dasharray:7.4,3.2;stroke-dashoffset:0;stroke-width:2;"/>
    </g>
    <g id="line2d_18"/>
    <g id="text_24">
     <!-- Plate C, buffer -->
     <g style="fill:#262626;" transform="translate(97.08125 114.58125)scale(0.1 -0.1)">
      <use xlink:href="#ArialMT-80"/>
      <use x="66.699219" xlink:href="#ArialMT-108"/>
      <use x="88.916016" xlink:href="#ArialMT-97"/>
      <use x="144.53125" xlink:href="#ArialMT-116"/>
      <use x="172.314453" xlink:href="#ArialMT-101"/>
      <use x="227.929688" xlink:href="#ArialMT-32"/>
      <use x="255.712891" xlink:href="#ArialMT-67"/>
      <use x="327.929688" xlink:href="#ArialMT-44"/>
      <use x="355.712891" xlink:href="#ArialMT-32"/>
      <use x="383.496094" xlink:href="#ArialMT-98"/>
      <use x="439.111328" xlink:href="#ArialMT-117"/>
      <use x="494.726562" xlink:href="#ArialMT-102"/>
      <use x="522.494141" xlink:href="#ArialMT-102"/>
      <use x="550.277344" xlink:href="#ArialMT-101"/>
      <use x="605.892578" xlink:href="#ArialMT-114"/>
     </g>
    </g>
   </g>
  </g>
 </g>
 <defs>
  <clipPath id="p3cffd46c2a">
   <rect height="217.44" width="446.4" x="60.08125" y="27.575"/>
  </clipPath>
 </defs>
</svg>
