<?xml version="1.0" encoding="utf-8" standalone="no"?>
<!DOCTYPE svg PUBLIC "-//W3C//DTD SVG 1.1//EN"
  "http://www.w3.org/Graphics/SVG/1.1/DTD/svg11.dtd">
<!-- Created with matplotlib (https://matplotlib.org/) -->
<svg height="403.5275pt" version="1.1" viewBox="0 0 637.1575 403.5275" width="637.1575pt" xmlns="http://www.w3.org/2000/svg" xmlns:xlink="http://www.w3.org/1999/xlink">
 <defs>
  <style type="text/css">
*{stroke-linecap:butt;stroke-linejoin:round;}
  </style>
 </defs>
 <g id="figure_1">
  <g id="patch_1">
   <path d="M 0 403.5275 
L 637.1575 403.5275 
L 637.1575 0 
L 0 0 
z
" style="fill:#ffffff;"/>
  </g>
  <g id="axes_1">
   <g id="patch_2">
    <path d="M 68.4575 353.675625 
L 626.4575 353.675625 
L 626.4575 27.515625 
L 68.4575 27.515625 
z
" style="fill:#ffffff;"/>
   </g>
   <g id="matplotlib.axis_1">
    <g id="xtick_1">
     <g id="text_1">
      <!-- $\mathdefault{10^{-8}}$ -->
      <defs>
       <path d="M 37.25 0 
L 28.46875 0 
L 28.46875 56 
Q 25.296875 52.984375 20.140625 49.953125 
Q 14.984375 46.921875 10.890625 45.40625 
L 10.890625 53.90625 
Q 18.265625 57.375 23.78125 62.296875 
Q 29.296875 67.234375 31.59375 71.875 
L 37.25 71.875 
z
" id="ArialMT-49"/>
       <path d="M 4.15625 35.296875 
Q 4.15625 48 6.765625 55.734375 
Q 9.375 63.484375 14.515625 67.671875 
Q 19.671875 71.875 27.484375 71.875 
Q 33.25 71.875 37.59375 69.546875 
Q 41.9375 67.234375 44.765625 62.859375 
Q 47.609375 58.5 49.21875 52.21875 
Q 50.828125 45.953125 50.828125 35.296875 
Q 50.828125 22.703125 48.234375 14.96875 
Q 45.65625 7.234375 40.5 3 
Q 35.359375 -1.21875 27.484375 -1.21875 
Q 17.140625 -1.21875 11.234375 6.203125 
Q 4.15625 15.140625 4.15625 35.296875 
z
M 13.1875 35.296875 
Q 13.1875 17.671875 17.3125 11.828125 
Q 21.4375 6 27.484375 6 
Q 33.546875 6 37.671875 11.859375 
Q 41.796875 17.71875 41.796875 35.296875 
Q 41.796875 52.984375 37.671875 58.78125 
Q 33.546875 64.59375 27.390625 64.59375 
Q 21.34375 64.59375 17.71875 59.46875 
Q 13.1875 52.9375 13.1875 35.296875 
z
" id="ArialMT-48"/>
       <path d="M 52.828125 31.203125 
L 5.5625 31.203125 
L 5.5625 39.40625 
L 52.828125 39.40625 
z
" id="ArialMT-8722"/>
       <path d="M 17.671875 38.8125 
Q 12.203125 40.828125 9.5625 44.53125 
Q 6.9375 48.25 6.9375 53.421875 
Q 6.9375 61.234375 12.546875 66.546875 
Q 18.171875 71.875 27.484375 71.875 
Q 36.859375 71.875 42.578125 66.421875 
Q 48.296875 60.984375 48.296875 53.171875 
Q 48.296875 48.1875 45.671875 44.5 
Q 43.0625 40.828125 37.75 38.8125 
Q 44.34375 36.671875 47.78125 31.875 
Q 51.21875 27.09375 51.21875 20.453125 
Q 51.21875 11.28125 44.71875 5.03125 
Q 38.234375 -1.21875 27.640625 -1.21875 
Q 17.046875 -1.21875 10.546875 5.046875 
Q 4.046875 11.328125 4.046875 20.703125 
Q 4.046875 27.6875 7.59375 32.390625 
Q 11.140625 37.109375 17.671875 38.8125 
z
M 15.921875 53.71875 
Q 15.921875 48.640625 19.1875 45.40625 
Q 22.46875 42.1875 27.6875 42.1875 
Q 32.765625 42.1875 36.015625 45.375 
Q 39.265625 48.578125 39.265625 53.21875 
Q 39.265625 58.0625 35.90625 61.359375 
Q 32.5625 64.65625 27.59375 64.65625 
Q 22.5625 64.65625 19.234375 61.421875 
Q 15.921875 58.203125 15.921875 53.71875 
z
M 13.09375 20.65625 
Q 13.09375 16.890625 14.875 13.375 
Q 16.65625 9.859375 20.171875 7.921875 
Q 23.6875 6 27.734375 6 
Q 34.03125 6 38.125 10.046875 
Q 42.234375 14.109375 42.234375 20.359375 
Q 42.234375 26.703125 38.015625 30.859375 
Q 33.796875 35.015625 27.4375 35.015625 
Q 21.234375 35.015625 17.15625 30.90625 
Q 13.09375 26.8125 13.09375 20.65625 
z
" id="ArialMT-56"/>
      </defs>
      <g style="fill:#262626;" transform="translate(95.058614 373.050625)scale(0.12 -0.12)">
       <use transform="translate(0 0.99375)" xlink:href="#ArialMT-49"/>
       <use transform="translate(55.615234 0.99375)" xlink:href="#ArialMT-48"/>
       <use transform="translate(112.972813 70.6875)scale(0.7)" xlink:href="#ArialMT-8722"/>
       <use transform="translate(153.851719 70.6875)scale(0.7)" xlink:href="#ArialMT-56"/>
      </g>
     </g>
    </g>
    <g id="xtick_2">
     <g id="text_2">
      <!-- $\mathdefault{10^{-7}}$ -->
      <defs>
       <path d="M 4.734375 62.203125 
L 4.734375 70.65625 
L 51.078125 70.65625 
L 51.078125 63.8125 
Q 44.234375 56.546875 37.515625 44.484375 
Q 30.8125 32.421875 27.15625 19.671875 
Q 24.515625 10.6875 23.78125 0 
L 14.75 0 
Q 14.890625 8.453125 18.0625 20.40625 
Q 21.234375 32.375 27.171875 43.484375 
Q 33.109375 54.59375 39.796875 62.203125 
z
" id="ArialMT-55"/>
      </defs>
      <g style="fill:#262626;" transform="translate(239.286886 372.930625)scale(0.12 -0.12)">
       <use transform="translate(0 0.846875)" xlink:href="#ArialMT-49"/>
       <use transform="translate(55.615234 0.846875)" xlink:href="#ArialMT-48"/>
       <use transform="translate(112.972813 70.540625)scale(0.7)" xlink:href="#ArialMT-8722"/>
       <use transform="translate(153.851719 70.540625)scale(0.7)" xlink:href="#ArialMT-55"/>
      </g>
     </g>
    </g>
    <g id="xtick_3">
     <g id="text_3">
      <!-- $\mathdefault{10^{-6}}$ -->
      <defs>
       <path d="M 49.75 54.046875 
L 41.015625 53.375 
Q 39.84375 58.546875 37.703125 60.890625 
Q 34.125 64.65625 28.90625 64.65625 
Q 24.703125 64.65625 21.53125 62.3125 
Q 17.390625 59.28125 14.984375 53.46875 
Q 12.59375 47.65625 12.5 36.921875 
Q 15.671875 41.75 20.265625 44.09375 
Q 24.859375 46.4375 29.890625 46.4375 
Q 38.671875 46.4375 44.84375 39.96875 
Q 51.03125 33.5 51.03125 23.25 
Q 51.03125 16.5 48.125 10.71875 
Q 45.21875 4.9375 40.140625 1.859375 
Q 35.0625 -1.21875 28.609375 -1.21875 
Q 17.625 -1.21875 10.6875 6.859375 
Q 3.765625 14.9375 3.765625 33.5 
Q 3.765625 54.25 11.421875 63.671875 
Q 18.109375 71.875 29.4375 71.875 
Q 37.890625 71.875 43.28125 67.140625 
Q 48.6875 62.40625 49.75 54.046875 
z
M 13.875 23.1875 
Q 13.875 18.65625 15.796875 14.5 
Q 17.71875 10.359375 21.1875 8.171875 
Q 24.65625 6 28.46875 6 
Q 34.03125 6 38.03125 10.484375 
Q 42.046875 14.984375 42.046875 22.703125 
Q 42.046875 30.125 38.078125 34.390625 
Q 34.125 38.671875 28.125 38.671875 
Q 22.171875 38.671875 18.015625 34.390625 
Q 13.875 30.125 13.875 23.1875 
z
" id="ArialMT-54"/>
      </defs>
      <g style="fill:#262626;" transform="translate(383.515157 373.050625)scale(0.12 -0.12)">
       <use transform="translate(0 0.99375)" xlink:href="#ArialMT-49"/>
       <use transform="translate(55.615234 0.99375)" xlink:href="#ArialMT-48"/>
       <use transform="translate(112.972813 70.6875)scale(0.7)" xlink:href="#ArialMT-8722"/>
       <use transform="translate(153.851719 70.6875)scale(0.7)" xlink:href="#ArialMT-54"/>
      </g>
     </g>
    </g>
    <g id="xtick_4">
     <g id="text_4">
      <!-- $\mathdefault{10^{-5}}$ -->
      <defs>
       <path d="M 4.15625 18.75 
L 13.375 19.53125 
Q 14.40625 12.796875 18.140625 9.390625 
Q 21.875 6 27.15625 6 
Q 33.5 6 37.890625 10.78125 
Q 42.28125 15.578125 42.28125 23.484375 
Q 42.28125 31 38.0625 35.34375 
Q 33.84375 39.703125 27 39.703125 
Q 22.75 39.703125 19.328125 37.765625 
Q 15.921875 35.84375 13.96875 32.765625 
L 5.71875 33.84375 
L 12.640625 70.609375 
L 48.25 70.609375 
L 48.25 62.203125 
L 19.671875 62.203125 
L 15.828125 42.96875 
Q 22.265625 47.46875 29.34375 47.46875 
Q 38.71875 47.46875 45.15625 40.96875 
Q 51.609375 34.46875 51.609375 24.265625 
Q 51.609375 14.546875 45.953125 7.46875 
Q 39.0625 -1.21875 27.15625 -1.21875 
Q 17.390625 -1.21875 11.203125 4.25 
Q 5.03125 9.71875 4.15625 18.75 
z
" id="ArialMT-53"/>
      </defs>
      <g style="fill:#262626;" transform="translate(527.743428 372.930625)scale(0.12 -0.12)">
       <use transform="translate(0 0.879688)" xlink:href="#ArialMT-49"/>
       <use transform="translate(55.615234 0.879688)" xlink:href="#ArialMT-48"/>
       <use transform="translate(112.972813 70.573438)scale(0.7)" xlink:href="#ArialMT-8722"/>
       <use transform="translate(153.851719 70.573438)scale(0.7)" xlink:href="#ArialMT-53"/>
      </g>
     </g>
    </g>
    <g id="xtick_5"/>
    <g id="xtick_6"/>
    <g id="xtick_7"/>
    <g id="xtick_8"/>
    <g id="xtick_9"/>
    <g id="xtick_10"/>
    <g id="xtick_11"/>
    <g id="xtick_12"/>
    <g id="xtick_13"/>
    <g id="xtick_14"/>
    <g id="xtick_15"/>
    <g id="xtick_16"/>
    <g id="xtick_17"/>
    <g id="xtick_18"/>
    <g id="xtick_19"/>
    <g id="xtick_20"/>
    <g id="xtick_21"/>
    <g id="xtick_22"/>
    <g id="xtick_23"/>
    <g id="xtick_24"/>
    <g id="xtick_25"/>
    <g id="xtick_26"/>
    <g id="xtick_27"/>
    <g id="xtick_28"/>
    <g id="xtick_29"/>
    <g id="xtick_30"/>
    <g id="xtick_31"/>
    <g id="xtick_32"/>
    <g id="xtick_33"/>
    <g id="xtick_34"/>
    <g id="xtick_35"/>
    <g id="text_5">
     <!-- [Gefitinib](M) -->
     <defs>
      <path d="M 6.78125 -19.875 
L 6.78125 71.578125 
L 26.171875 71.578125 
L 26.171875 64.3125 
L 15.578125 64.3125 
L 15.578125 -12.59375 
L 26.171875 -12.59375 
L 26.171875 -19.875 
z
" id="ArialMT-91"/>
      <path d="M 41.21875 28.078125 
L 41.21875 36.46875 
L 71.53125 36.53125 
L 71.53125 9.96875 
Q 64.546875 4.390625 57.125 1.578125 
Q 49.703125 -1.21875 41.890625 -1.21875 
Q 31.34375 -1.21875 22.71875 3.296875 
Q 14.109375 7.8125 9.71875 16.359375 
Q 5.328125 24.90625 5.328125 35.453125 
Q 5.328125 45.90625 9.6875 54.953125 
Q 14.0625 64.015625 22.265625 68.40625 
Q 30.46875 72.796875 41.15625 72.796875 
Q 48.921875 72.796875 55.1875 70.28125 
Q 61.46875 67.78125 65.03125 63.28125 
Q 68.609375 58.796875 70.453125 51.5625 
L 61.921875 49.21875 
Q 60.296875 54.6875 57.90625 57.8125 
Q 55.515625 60.9375 51.0625 62.8125 
Q 46.625 64.703125 41.21875 64.703125 
Q 34.71875 64.703125 29.984375 62.71875 
Q 25.25 60.75 22.34375 57.515625 
Q 19.4375 54.296875 17.828125 50.4375 
Q 15.09375 43.796875 15.09375 36.03125 
Q 15.09375 26.46875 18.390625 20.015625 
Q 21.6875 13.578125 27.984375 10.453125 
Q 34.28125 7.328125 41.359375 7.328125 
Q 47.515625 7.328125 53.375 9.6875 
Q 59.234375 12.0625 62.25 14.75 
L 62.25 28.078125 
z
" id="ArialMT-71"/>
      <path d="M 42.09375 16.703125 
L 51.171875 15.578125 
Q 49.03125 7.625 43.21875 3.21875 
Q 37.40625 -1.171875 28.375 -1.171875 
Q 17 -1.171875 10.328125 5.828125 
Q 3.65625 12.84375 3.65625 25.484375 
Q 3.65625 38.578125 10.390625 45.796875 
Q 17.140625 53.03125 27.875 53.03125 
Q 38.28125 53.03125 44.875 45.953125 
Q 51.46875 38.875 51.46875 26.03125 
Q 51.46875 25.25 51.421875 23.6875 
L 12.75 23.6875 
Q 13.234375 15.140625 17.578125 10.59375 
Q 21.921875 6.0625 28.421875 6.0625 
Q 33.25 6.0625 36.671875 8.59375 
Q 40.09375 11.140625 42.09375 16.703125 
z
M 13.234375 30.90625 
L 42.1875 30.90625 
Q 41.609375 37.453125 38.875 40.71875 
Q 34.671875 45.796875 27.984375 45.796875 
Q 21.921875 45.796875 17.796875 41.75 
Q 13.671875 37.703125 13.234375 30.90625 
z
" id="ArialMT-101"/>
      <path d="M 8.6875 0 
L 8.6875 45.015625 
L 0.921875 45.015625 
L 0.921875 51.859375 
L 8.6875 51.859375 
L 8.6875 57.375 
Q 8.6875 62.59375 9.625 65.140625 
Q 10.890625 68.5625 14.078125 70.671875 
Q 17.28125 72.796875 23.046875 72.796875 
Q 26.765625 72.796875 31.25 71.921875 
L 29.9375 64.265625 
Q 27.203125 64.75 24.75 64.75 
Q 20.75 64.75 19.09375 63.03125 
Q 17.4375 61.328125 17.4375 56.640625 
L 17.4375 51.859375 
L 27.546875 51.859375 
L 27.546875 45.015625 
L 17.4375 45.015625 
L 17.4375 0 
z
" id="ArialMT-102"/>
      <path d="M 6.640625 61.46875 
L 6.640625 71.578125 
L 15.4375 71.578125 
L 15.4375 61.46875 
z
M 6.640625 0 
L 6.640625 51.859375 
L 15.4375 51.859375 
L 15.4375 0 
z
" id="ArialMT-105"/>
      <path d="M 25.78125 7.859375 
L 27.046875 0.09375 
Q 23.34375 -0.6875 20.40625 -0.6875 
Q 15.625 -0.6875 12.984375 0.828125 
Q 10.359375 2.34375 9.28125 4.8125 
Q 8.203125 7.28125 8.203125 15.1875 
L 8.203125 45.015625 
L 1.765625 45.015625 
L 1.765625 51.859375 
L 8.203125 51.859375 
L 8.203125 64.703125 
L 16.9375 69.96875 
L 16.9375 51.859375 
L 25.78125 51.859375 
L 25.78125 45.015625 
L 16.9375 45.015625 
L 16.9375 14.703125 
Q 16.9375 10.9375 17.40625 9.859375 
Q 17.875 8.796875 18.921875 8.15625 
Q 19.96875 7.515625 21.921875 7.515625 
Q 23.390625 7.515625 25.78125 7.859375 
z
" id="ArialMT-116"/>
      <path d="M 6.59375 0 
L 6.59375 51.859375 
L 14.5 51.859375 
L 14.5 44.484375 
Q 20.21875 53.03125 31 53.03125 
Q 35.6875 53.03125 39.625 51.34375 
Q 43.5625 49.65625 45.515625 46.921875 
Q 47.46875 44.1875 48.25 40.4375 
Q 48.734375 37.984375 48.734375 31.890625 
L 48.734375 0 
L 39.9375 0 
L 39.9375 31.546875 
Q 39.9375 36.921875 38.90625 39.578125 
Q 37.890625 42.234375 35.28125 43.8125 
Q 32.671875 45.40625 29.15625 45.40625 
Q 23.53125 45.40625 19.453125 41.84375 
Q 15.375 38.28125 15.375 28.328125 
L 15.375 0 
z
" id="ArialMT-110"/>
      <path d="M 14.703125 0 
L 6.546875 0 
L 6.546875 71.578125 
L 15.328125 71.578125 
L 15.328125 46.046875 
Q 20.90625 53.03125 29.546875 53.03125 
Q 34.328125 53.03125 38.59375 51.09375 
Q 42.875 49.171875 45.625 45.671875 
Q 48.390625 42.1875 49.953125 37.25 
Q 51.515625 32.328125 51.515625 26.703125 
Q 51.515625 13.375 44.921875 6.09375 
Q 38.328125 -1.171875 29.109375 -1.171875 
Q 19.921875 -1.171875 14.703125 6.5 
z
M 14.59375 26.3125 
Q 14.59375 17 17.140625 12.84375 
Q 21.296875 6.0625 28.375 6.0625 
Q 34.125 6.0625 38.328125 11.0625 
Q 42.53125 16.0625 42.53125 25.984375 
Q 42.53125 36.140625 38.5 40.96875 
Q 34.46875 45.796875 28.765625 45.796875 
Q 23 45.796875 18.796875 40.796875 
Q 14.59375 35.796875 14.59375 26.3125 
z
" id="ArialMT-98"/>
      <path d="M 21.296875 -19.875 
L 1.90625 -19.875 
L 1.90625 -12.59375 
L 12.5 -12.59375 
L 12.5 64.3125 
L 1.90625 64.3125 
L 1.90625 71.578125 
L 21.296875 71.578125 
z
" id="ArialMT-93"/>
      <path d="M 23.390625 -21.046875 
Q 16.109375 -11.859375 11.078125 0.4375 
Q 6.0625 12.75 6.0625 25.921875 
Q 6.0625 37.546875 9.8125 48.1875 
Q 14.203125 60.546875 23.390625 72.796875 
L 29.6875 72.796875 
Q 23.78125 62.640625 21.875 58.296875 
Q 18.890625 51.5625 17.1875 44.234375 
Q 15.09375 35.109375 15.09375 25.875 
Q 15.09375 2.390625 29.6875 -21.046875 
z
" id="ArialMT-40"/>
      <path d="M 7.421875 0 
L 7.421875 71.578125 
L 21.6875 71.578125 
L 38.625 20.90625 
Q 40.96875 13.8125 42.046875 10.296875 
Q 43.265625 14.203125 45.84375 21.78125 
L 62.984375 71.578125 
L 75.734375 71.578125 
L 75.734375 0 
L 66.609375 0 
L 66.609375 59.90625 
L 45.796875 0 
L 37.25 0 
L 16.546875 60.9375 
L 16.546875 0 
z
" id="ArialMT-77"/>
      <path d="M 12.359375 -21.046875 
L 6.0625 -21.046875 
Q 20.65625 2.390625 20.65625 25.875 
Q 20.65625 35.0625 18.5625 44.09375 
Q 16.890625 51.421875 13.921875 58.15625 
Q 12.015625 62.546875 6.0625 72.796875 
L 12.359375 72.796875 
Q 21.53125 60.546875 25.921875 48.1875 
Q 29.6875 37.546875 29.6875 25.921875 
Q 29.6875 12.75 24.625 0.4375 
Q 19.578125 -11.859375 12.359375 -21.046875 
z
" id="ArialMT-41"/>
     </defs>
     <g style="fill:#262626;" transform="translate(295.952187 392.539062)scale(0.18 -0.18)">
      <use xlink:href="#ArialMT-91"/>
      <use x="27.783203" xlink:href="#ArialMT-71"/>
      <use x="105.566406" xlink:href="#ArialMT-101"/>
      <use x="161.181641" xlink:href="#ArialMT-102"/>
      <use x="188.964844" xlink:href="#ArialMT-105"/>
      <use x="211.181641" xlink:href="#ArialMT-116"/>
      <use x="238.964844" xlink:href="#ArialMT-105"/>
      <use x="261.181641" xlink:href="#ArialMT-110"/>
      <use x="316.796875" xlink:href="#ArialMT-105"/>
      <use x="339.013672" xlink:href="#ArialMT-98"/>
      <use x="394.628906" xlink:href="#ArialMT-93"/>
      <use x="422.412109" xlink:href="#ArialMT-40"/>
      <use x="455.712891" xlink:href="#ArialMT-77"/>
      <use x="539.013672" xlink:href="#ArialMT-41"/>
     </g>
    </g>
   </g>
   <g id="matplotlib.axis_2">
    <g id="ytick_1">
     <g id="text_6">
      <!-- 0 -->
      <g style="fill:#262626;" transform="translate(54.784375 345.020548)scale(0.12 -0.12)">
       <use xlink:href="#ArialMT-48"/>
      </g>
     </g>
    </g>
    <g id="ytick_2">
     <g id="text_7">
      <!-- 5000 -->
      <g style="fill:#262626;" transform="translate(34.765 298.128296)scale(0.12 -0.12)">
       <use xlink:href="#ArialMT-53"/>
       <use x="55.615234" xlink:href="#ArialMT-48"/>
       <use x="111.230469" xlink:href="#ArialMT-48"/>
       <use x="166.845703" xlink:href="#ArialMT-48"/>
      </g>
     </g>
    </g>
    <g id="ytick_3">
     <g id="text_8">
      <!-- 10000 -->
      <g style="fill:#262626;" transform="translate(28.091875 251.236043)scale(0.12 -0.12)">
       <use xlink:href="#ArialMT-49"/>
       <use x="55.615234" xlink:href="#ArialMT-48"/>
       <use x="111.230469" xlink:href="#ArialMT-48"/>
       <use x="166.845703" xlink:href="#ArialMT-48"/>
       <use x="222.460938" xlink:href="#ArialMT-48"/>
      </g>
     </g>
    </g>
    <g id="ytick_4">
     <g id="text_9">
      <!-- 15000 -->
      <g style="fill:#262626;" transform="translate(28.091875 204.343791)scale(0.12 -0.12)">
       <use xlink:href="#ArialMT-49"/>
       <use x="55.615234" xlink:href="#ArialMT-53"/>
       <use x="111.230469" xlink:href="#ArialMT-48"/>
       <use x="166.845703" xlink:href="#ArialMT-48"/>
       <use x="222.460938" xlink:href="#ArialMT-48"/>
      </g>
     </g>
    </g>
    <g id="ytick_5">
     <g id="text_10">
      <!-- 20000 -->
      <defs>
       <path d="M 50.34375 8.453125 
L 50.34375 0 
L 3.03125 0 
Q 2.9375 3.171875 4.046875 6.109375 
Q 5.859375 10.9375 9.828125 15.625 
Q 13.8125 20.3125 21.34375 26.46875 
Q 33.015625 36.03125 37.109375 41.625 
Q 41.21875 47.21875 41.21875 52.203125 
Q 41.21875 57.421875 37.46875 61 
Q 33.734375 64.59375 27.734375 64.59375 
Q 21.390625 64.59375 17.578125 60.78125 
Q 13.765625 56.984375 13.71875 50.25 
L 4.6875 51.171875 
Q 5.609375 61.28125 11.65625 66.578125 
Q 17.71875 71.875 27.9375 71.875 
Q 38.234375 71.875 44.234375 66.15625 
Q 50.25 60.453125 50.25 52 
Q 50.25 47.703125 48.484375 43.546875 
Q 46.734375 39.40625 42.65625 34.8125 
Q 38.578125 30.21875 29.109375 22.21875 
Q 21.1875 15.578125 18.9375 13.203125 
Q 16.703125 10.84375 15.234375 8.453125 
z
" id="ArialMT-50"/>
      </defs>
      <g style="fill:#262626;" transform="translate(28.091875 157.451538)scale(0.12 -0.12)">
       <use xlink:href="#ArialMT-50"/>
       <use x="55.615234" xlink:href="#ArialMT-48"/>
       <use x="111.230469" xlink:href="#ArialMT-48"/>
       <use x="166.845703" xlink:href="#ArialMT-48"/>
       <use x="222.460938" xlink:href="#ArialMT-48"/>
      </g>
     </g>
    </g>
    <g id="ytick_6">
     <g id="text_11">
      <!-- 25000 -->
      <g style="fill:#262626;" transform="translate(28.091875 110.559286)scale(0.12 -0.12)">
       <use xlink:href="#ArialMT-50"/>
       <use x="55.615234" xlink:href="#ArialMT-53"/>
       <use x="111.230469" xlink:href="#ArialMT-48"/>
       <use x="166.845703" xlink:href="#ArialMT-48"/>
       <use x="222.460938" xlink:href="#ArialMT-48"/>
      </g>
     </g>
    </g>
    <g id="ytick_7">
     <g id="text_12">
      <!-- 30000 -->
      <defs>
       <path d="M 4.203125 18.890625 
L 12.984375 20.0625 
Q 14.5 12.59375 18.140625 9.296875 
Q 21.78125 6 27 6 
Q 33.203125 6 37.46875 10.296875 
Q 41.75 14.59375 41.75 20.953125 
Q 41.75 27 37.796875 30.921875 
Q 33.84375 34.859375 27.734375 34.859375 
Q 25.25 34.859375 21.53125 33.890625 
L 22.515625 41.609375 
Q 23.390625 41.5 23.921875 41.5 
Q 29.546875 41.5 34.03125 44.421875 
Q 38.53125 47.359375 38.53125 53.46875 
Q 38.53125 58.296875 35.25 61.46875 
Q 31.984375 64.65625 26.8125 64.65625 
Q 21.6875 64.65625 18.265625 61.421875 
Q 14.84375 58.203125 13.875 51.765625 
L 5.078125 53.328125 
Q 6.6875 62.15625 12.390625 67.015625 
Q 18.109375 71.875 26.609375 71.875 
Q 32.46875 71.875 37.390625 69.359375 
Q 42.328125 66.84375 44.9375 62.5 
Q 47.5625 58.15625 47.5625 53.265625 
Q 47.5625 48.640625 45.0625 44.828125 
Q 42.578125 41.015625 37.703125 38.765625 
Q 44.046875 37.3125 47.5625 32.6875 
Q 51.078125 28.078125 51.078125 21.140625 
Q 51.078125 11.765625 44.234375 5.25 
Q 37.40625 -1.265625 26.953125 -1.265625 
Q 17.53125 -1.265625 11.296875 4.34375 
Q 5.078125 9.96875 4.203125 18.890625 
z
" id="ArialMT-51"/>
      </defs>
      <g style="fill:#262626;" transform="translate(28.091875 63.667033)scale(0.12 -0.12)">
       <use xlink:href="#ArialMT-51"/>
       <use x="55.615234" xlink:href="#ArialMT-48"/>
       <use x="111.230469" xlink:href="#ArialMT-48"/>
       <use x="166.845703" xlink:href="#ArialMT-48"/>
       <use x="222.460938" xlink:href="#ArialMT-48"/>
      </g>
     </g>
    </g>
    <g id="text_13">
     <!-- Fluorescence Intensity (rfu) -->
     <defs>
      <path d="M 8.203125 0 
L 8.203125 71.578125 
L 56.5 71.578125 
L 56.5 63.140625 
L 17.671875 63.140625 
L 17.671875 40.96875 
L 51.265625 40.96875 
L 51.265625 32.515625 
L 17.671875 32.515625 
L 17.671875 0 
z
" id="ArialMT-70"/>
      <path d="M 6.390625 0 
L 6.390625 71.578125 
L 15.1875 71.578125 
L 15.1875 0 
z
" id="ArialMT-108"/>
      <path d="M 40.578125 0 
L 40.578125 7.625 
Q 34.515625 -1.171875 24.125 -1.171875 
Q 19.53125 -1.171875 15.546875 0.578125 
Q 11.578125 2.34375 9.640625 5 
Q 7.71875 7.671875 6.9375 11.53125 
Q 6.390625 14.109375 6.390625 19.734375 
L 6.390625 51.859375 
L 15.1875 51.859375 
L 15.1875 23.09375 
Q 15.1875 16.21875 15.71875 13.8125 
Q 16.546875 10.359375 19.234375 8.375 
Q 21.921875 6.390625 25.875 6.390625 
Q 29.828125 6.390625 33.296875 8.421875 
Q 36.765625 10.453125 38.203125 13.9375 
Q 39.65625 17.4375 39.65625 24.078125 
L 39.65625 51.859375 
L 48.4375 51.859375 
L 48.4375 0 
z
" id="ArialMT-117"/>
      <path d="M 3.328125 25.921875 
Q 3.328125 40.328125 11.328125 47.265625 
Q 18.015625 53.03125 27.640625 53.03125 
Q 38.328125 53.03125 45.109375 46.015625 
Q 51.90625 39.015625 51.90625 26.65625 
Q 51.90625 16.65625 48.90625 10.90625 
Q 45.90625 5.171875 40.15625 2 
Q 34.421875 -1.171875 27.640625 -1.171875 
Q 16.75 -1.171875 10.03125 5.8125 
Q 3.328125 12.796875 3.328125 25.921875 
z
M 12.359375 25.921875 
Q 12.359375 15.96875 16.703125 11.015625 
Q 21.046875 6.0625 27.640625 6.0625 
Q 34.1875 6.0625 38.53125 11.03125 
Q 42.875 16.015625 42.875 26.21875 
Q 42.875 35.84375 38.5 40.796875 
Q 34.125 45.75 27.640625 45.75 
Q 21.046875 45.75 16.703125 40.8125 
Q 12.359375 35.890625 12.359375 25.921875 
z
" id="ArialMT-111"/>
      <path d="M 6.5 0 
L 6.5 51.859375 
L 14.40625 51.859375 
L 14.40625 44 
Q 17.4375 49.515625 20 51.265625 
Q 22.5625 53.03125 25.640625 53.03125 
Q 30.078125 53.03125 34.671875 50.203125 
L 31.640625 42.046875 
Q 28.421875 43.953125 25.203125 43.953125 
Q 22.3125 43.953125 20.015625 42.21875 
Q 17.71875 40.484375 16.75 37.40625 
Q 15.28125 32.71875 15.28125 27.15625 
L 15.28125 0 
z
" id="ArialMT-114"/>
      <path d="M 3.078125 15.484375 
L 11.765625 16.84375 
Q 12.5 11.625 15.84375 8.84375 
Q 19.1875 6.0625 25.203125 6.0625 
Q 31.25 6.0625 34.171875 8.515625 
Q 37.109375 10.984375 37.109375 14.3125 
Q 37.109375 17.28125 34.515625 19 
Q 32.71875 20.171875 25.53125 21.96875 
Q 15.875 24.421875 12.140625 26.203125 
Q 8.40625 27.984375 6.46875 31.125 
Q 4.546875 34.28125 4.546875 38.09375 
Q 4.546875 41.546875 6.125 44.5 
Q 7.71875 47.46875 10.453125 49.421875 
Q 12.5 50.921875 16.03125 51.96875 
Q 19.578125 53.03125 23.640625 53.03125 
Q 29.734375 53.03125 34.34375 51.265625 
Q 38.96875 49.515625 41.15625 46.5 
Q 43.359375 43.5 44.1875 38.484375 
L 35.59375 37.3125 
Q 35.015625 41.3125 32.203125 43.546875 
Q 29.390625 45.796875 24.265625 45.796875 
Q 18.21875 45.796875 15.625 43.796875 
Q 13.03125 41.796875 13.03125 39.109375 
Q 13.03125 37.40625 14.109375 36.03125 
Q 15.1875 34.625 17.484375 33.6875 
Q 18.796875 33.203125 25.25 31.453125 
Q 34.578125 28.953125 38.25 27.359375 
Q 41.9375 25.78125 44.03125 22.75 
Q 46.140625 19.734375 46.140625 15.234375 
Q 46.140625 10.84375 43.578125 6.953125 
Q 41.015625 3.078125 36.171875 0.953125 
Q 31.34375 -1.171875 25.25 -1.171875 
Q 15.140625 -1.171875 9.84375 3.03125 
Q 4.546875 7.234375 3.078125 15.484375 
z
" id="ArialMT-115"/>
      <path d="M 40.4375 19 
L 49.078125 17.875 
Q 47.65625 8.9375 41.8125 3.875 
Q 35.984375 -1.171875 27.484375 -1.171875 
Q 16.84375 -1.171875 10.375 5.78125 
Q 3.90625 12.75 3.90625 25.734375 
Q 3.90625 34.125 6.6875 40.421875 
Q 9.46875 46.734375 15.15625 49.875 
Q 20.84375 53.03125 27.546875 53.03125 
Q 35.984375 53.03125 41.359375 48.75 
Q 46.734375 44.484375 48.25 36.625 
L 39.703125 35.296875 
Q 38.484375 40.53125 35.375 43.15625 
Q 32.28125 45.796875 27.875 45.796875 
Q 21.234375 45.796875 17.078125 41.03125 
Q 12.9375 36.28125 12.9375 25.984375 
Q 12.9375 15.53125 16.9375 10.796875 
Q 20.953125 6.0625 27.390625 6.0625 
Q 32.5625 6.0625 36.03125 9.234375 
Q 39.5 12.40625 40.4375 19 
z
" id="ArialMT-99"/>
      <path id="ArialMT-32"/>
      <path d="M 9.328125 0 
L 9.328125 71.578125 
L 18.796875 71.578125 
L 18.796875 0 
z
" id="ArialMT-73"/>
      <path d="M 6.203125 -19.96875 
L 5.21875 -11.71875 
Q 8.109375 -12.5 10.25 -12.5 
Q 13.1875 -12.5 14.9375 -11.515625 
Q 16.703125 -10.546875 17.828125 -8.796875 
Q 18.65625 -7.46875 20.515625 -2.25 
Q 20.75 -1.515625 21.296875 -0.09375 
L 1.609375 51.859375 
L 11.078125 51.859375 
L 21.875 21.828125 
Q 23.96875 16.109375 25.640625 9.8125 
Q 27.15625 15.875 29.25 21.625 
L 40.328125 51.859375 
L 49.125 51.859375 
L 29.390625 -0.875 
Q 26.21875 -9.421875 24.46875 -12.640625 
Q 22.125 -17 19.09375 -19.015625 
Q 16.0625 -21.046875 11.859375 -21.046875 
Q 9.328125 -21.046875 6.203125 -19.96875 
z
" id="ArialMT-121"/>
     </defs>
     <g style="fill:#262626;" transform="translate(20.303438 299.629219)rotate(-90)scale(0.18 -0.18)">
      <use xlink:href="#ArialMT-70"/>
      <use x="61.083984" xlink:href="#ArialMT-108"/>
      <use x="83.300781" xlink:href="#ArialMT-117"/>
      <use x="138.916016" xlink:href="#ArialMT-111"/>
      <use x="194.53125" xlink:href="#ArialMT-114"/>
      <use x="227.832031" xlink:href="#ArialMT-101"/>
      <use x="283.447266" xlink:href="#ArialMT-115"/>
      <use x="333.447266" xlink:href="#ArialMT-99"/>
      <use x="383.447266" xlink:href="#ArialMT-101"/>
      <use x="439.0625" xlink:href="#ArialMT-110"/>
      <use x="494.677734" xlink:href="#ArialMT-99"/>
      <use x="544.677734" xlink:href="#ArialMT-101"/>
      <use x="600.292969" xlink:href="#ArialMT-32"/>
      <use x="628.076172" xlink:href="#ArialMT-73"/>
      <use x="655.859375" xlink:href="#ArialMT-110"/>
      <use x="711.474609" xlink:href="#ArialMT-116"/>
      <use x="739.257812" xlink:href="#ArialMT-101"/>
      <use x="794.873047" xlink:href="#ArialMT-110"/>
      <use x="850.488281" xlink:href="#ArialMT-115"/>
      <use x="900.488281" xlink:href="#ArialMT-105"/>
      <use x="922.705078" xlink:href="#ArialMT-116"/>
      <use x="950.488281" xlink:href="#ArialMT-121"/>
      <use x="1000.488281" xlink:href="#ArialMT-32"/>
      <use x="1028.271484" xlink:href="#ArialMT-40"/>
      <use x="1061.572266" xlink:href="#ArialMT-114"/>
      <use x="1094.873047" xlink:href="#ArialMT-102"/>
      <use x="1122.65625" xlink:href="#ArialMT-117"/>
      <use x="1178.271484" xlink:href="#ArialMT-41"/>
     </g>
    </g>
   </g>
   <g id="line2d_1">
    <path clip-path="url(#pc6f5879db7)" d="M -1 337.330935 
L 92.961451 337.330861 
L 125.633385 336.740019 
L 158.305319 336.411773 
L 190.977253 336.486801 
L 223.649188 336.571207 
L 256.321122 336.580585 
L 288.993056 336.224204 
L 321.66499 335.633362 
L 354.336925 333.776429 
L 387.008859 333.391912 
L 419.680793 332.594744 
L 452.352727 332.050794 
L 485.024661 331.675656 
L 517.696596 331.375545 
L 546.650076 328.168115 
L 583.040464 328.2619 
" style="fill:none;stroke:#794724;stroke-linecap:round;stroke-width:2;"/>
    <defs>
     <path d="M 0 3 
C 0.795609 3 1.55874 2.683901 2.12132 2.12132 
C 2.683901 1.55874 3 0.795609 3 0 
C 3 -0.795609 2.683901 -1.55874 2.12132 -2.12132 
C 1.55874 -2.683901 0.795609 -3 0 -3 
C -0.795609 -3 -1.55874 -2.683901 -2.12132 -2.12132 
C -2.683901 -1.55874 -3 -0.795609 -3 0 
C -3 0.795609 -2.683901 1.55874 -2.12132 2.12132 
C -1.55874 2.683901 -0.795609 3 0 3 
z
" id="m5a7569c2f9" style="stroke:#794724;"/>
    </defs>
    <g clip-path="url(#pc6f5879db7)">
     <use style="fill:#794724;stroke:#794724;" x="-1" xlink:href="#m5a7569c2f9" y="337.330935"/>
     <use style="fill:#794724;stroke:#794724;" x="92.961451" xlink:href="#m5a7569c2f9" y="337.330861"/>
     <use style="fill:#794724;stroke:#794724;" x="125.633385" xlink:href="#m5a7569c2f9" y="336.740019"/>
     <use style="fill:#794724;stroke:#794724;" x="158.305319" xlink:href="#m5a7569c2f9" y="336.411773"/>
     <use style="fill:#794724;stroke:#794724;" x="190.977253" xlink:href="#m5a7569c2f9" y="336.486801"/>
     <use style="fill:#794724;stroke:#794724;" x="223.649188" xlink:href="#m5a7569c2f9" y="336.571207"/>
     <use style="fill:#794724;stroke:#794724;" x="256.321122" xlink:href="#m5a7569c2f9" y="336.580585"/>
     <use style="fill:#794724;stroke:#794724;" x="288.993056" xlink:href="#m5a7569c2f9" y="336.224204"/>
     <use style="fill:#794724;stroke:#794724;" x="321.66499" xlink:href="#m5a7569c2f9" y="335.633362"/>
     <use style="fill:#794724;stroke:#794724;" x="354.336925" xlink:href="#m5a7569c2f9" y="333.776429"/>
     <use style="fill:#794724;stroke:#794724;" x="387.008859" xlink:href="#m5a7569c2f9" y="333.391912"/>
     <use style="fill:#794724;stroke:#794724;" x="419.680793" xlink:href="#m5a7569c2f9" y="332.594744"/>
     <use style="fill:#794724;stroke:#794724;" x="452.352727" xlink:href="#m5a7569c2f9" y="332.050794"/>
     <use style="fill:#794724;stroke:#794724;" x="485.024661" xlink:href="#m5a7569c2f9" y="331.675656"/>
     <use style="fill:#794724;stroke:#794724;" x="517.696596" xlink:href="#m5a7569c2f9" y="331.375545"/>
     <use style="fill:#794724;stroke:#794724;" x="546.650076" xlink:href="#m5a7569c2f9" y="328.168115"/>
     <use style="fill:#794724;stroke:#794724;" x="583.040464" xlink:href="#m5a7569c2f9" y="328.2619"/>
    </g>
   </g>
   <g id="line2d_2">
    <path clip-path="url(#pc6f5879db7)" d="M -1 334.11393 
L 92.961451 334.114053 
L 125.633385 334.020268 
L 158.305319 334.001512 
L 190.977253 333.842078 
L 223.649188 332.988639 
L 256.321122 332.182092 
L 288.993056 331.028543 
L 321.66499 328.665173 
L 354.336925 326.479994 
L 387.008859 321.912689 
L 419.680793 317.279734 
L 452.352727 314.503713 
L 485.024661 311.333797 
L 517.696596 309.580026 
L 546.650076 306.541408 
L 583.040464 304.018605 
" style="fill:none;stroke:#be5a15;stroke-linecap:round;stroke-width:2;"/>
    <defs>
     <path d="M 0 3 
C 0.795609 3 1.55874 2.683901 2.12132 2.12132 
C 2.683901 1.55874 3 0.795609 3 0 
C 3 -0.795609 2.683901 -1.55874 2.12132 -2.12132 
C 1.55874 -2.683901 0.795609 -3 0 -3 
C -0.795609 -3 -1.55874 -2.683901 -2.12132 -2.12132 
C -2.683901 -1.55874 -3 -0.795609 -3 0 
C -3 0.795609 -2.683901 1.55874 -2.12132 2.12132 
C -1.55874 2.683901 -0.795609 3 0 3 
z
" id="m2729dae563" style="stroke:#be5a15;"/>
    </defs>
    <g clip-path="url(#pc6f5879db7)">
     <use style="fill:#be5a15;stroke:#be5a15;" x="-1" xlink:href="#m2729dae563" y="334.11393"/>
     <use style="fill:#be5a15;stroke:#be5a15;" x="92.961451" xlink:href="#m2729dae563" y="334.114053"/>
     <use style="fill:#be5a15;stroke:#be5a15;" x="125.633385" xlink:href="#m2729dae563" y="334.020268"/>
     <use style="fill:#be5a15;stroke:#be5a15;" x="158.305319" xlink:href="#m2729dae563" y="334.001512"/>
     <use style="fill:#be5a15;stroke:#be5a15;" x="190.977253" xlink:href="#m2729dae563" y="333.842078"/>
     <use style="fill:#be5a15;stroke:#be5a15;" x="223.649188" xlink:href="#m2729dae563" y="332.988639"/>
     <use style="fill:#be5a15;stroke:#be5a15;" x="256.321122" xlink:href="#m2729dae563" y="332.182092"/>
     <use style="fill:#be5a15;stroke:#be5a15;" x="288.993056" xlink:href="#m2729dae563" y="331.028543"/>
     <use style="fill:#be5a15;stroke:#be5a15;" x="321.66499" xlink:href="#m2729dae563" y="328.665173"/>
     <use style="fill:#be5a15;stroke:#be5a15;" x="354.336925" xlink:href="#m2729dae563" y="326.479994"/>
     <use style="fill:#be5a15;stroke:#be5a15;" x="387.008859" xlink:href="#m2729dae563" y="321.912689"/>
     <use style="fill:#be5a15;stroke:#be5a15;" x="419.680793" xlink:href="#m2729dae563" y="317.279734"/>
     <use style="fill:#be5a15;stroke:#be5a15;" x="452.352727" xlink:href="#m2729dae563" y="314.503713"/>
     <use style="fill:#be5a15;stroke:#be5a15;" x="485.024661" xlink:href="#m2729dae563" y="311.333797"/>
     <use style="fill:#be5a15;stroke:#be5a15;" x="517.696596" xlink:href="#m2729dae563" y="309.580026"/>
     <use style="fill:#be5a15;stroke:#be5a15;" x="546.650076" xlink:href="#m2729dae563" y="306.541408"/>
     <use style="fill:#be5a15;stroke:#be5a15;" x="583.040464" xlink:href="#m2729dae563" y="304.018605"/>
    </g>
   </g>
   <g id="line2d_3">
    <path clip-path="url(#pc6f5879db7)" d="M -1 311.475089 
L 92.961451 311.474473 
L 125.633385 311.408824 
L 158.305319 311.549501 
L 190.977253 309.973921 
L 223.649188 308.820372 
L 256.321122 306.597679 
L 288.993056 302.283592 
L 321.66499 295.671784 
L 354.336925 285.693113 
L 387.008859 272.375713 
L 419.680793 255.372583 
L 452.352727 235.41524 
L 485.024661 209.352526 
L 517.696596 176.377894 
L 546.650076 124.449414 
L 583.040464 42.34108 
" style="fill:none;stroke:#e7791f;stroke-linecap:round;stroke-width:2;"/>
    <defs>
     <path d="M 0 3 
C 0.795609 3 1.55874 2.683901 2.12132 2.12132 
C 2.683901 1.55874 3 0.795609 3 0 
C 3 -0.795609 2.683901 -1.55874 2.12132 -2.12132 
C 1.55874 -2.683901 0.795609 -3 0 -3 
C -0.795609 -3 -1.55874 -2.683901 -2.12132 -2.12132 
C -2.683901 -1.55874 -3 -0.795609 -3 0 
C -3 0.795609 -2.683901 1.55874 -2.12132 2.12132 
C -1.55874 2.683901 -0.795609 3 0 3 
z
" id="m292aa818dc" style="stroke:#e7791f;"/>
    </defs>
    <g clip-path="url(#pc6f5879db7)">
     <use style="fill:#e7791f;stroke:#e7791f;" x="-1" xlink:href="#m292aa818dc" y="311.475089"/>
     <use style="fill:#e7791f;stroke:#e7791f;" x="92.961451" xlink:href="#m292aa818dc" y="311.474473"/>
     <use style="fill:#e7791f;stroke:#e7791f;" x="125.633385" xlink:href="#m292aa818dc" y="311.408824"/>
     <use style="fill:#e7791f;stroke:#e7791f;" x="158.305319" xlink:href="#m292aa818dc" y="311.549501"/>
     <use style="fill:#e7791f;stroke:#e7791f;" x="190.977253" xlink:href="#m292aa818dc" y="309.973921"/>
     <use style="fill:#e7791f;stroke:#e7791f;" x="223.649188" xlink:href="#m292aa818dc" y="308.820372"/>
     <use style="fill:#e7791f;stroke:#e7791f;" x="256.321122" xlink:href="#m292aa818dc" y="306.597679"/>
     <use style="fill:#e7791f;stroke:#e7791f;" x="288.993056" xlink:href="#m292aa818dc" y="302.283592"/>
     <use style="fill:#e7791f;stroke:#e7791f;" x="321.66499" xlink:href="#m292aa818dc" y="295.671784"/>
     <use style="fill:#e7791f;stroke:#e7791f;" x="354.336925" xlink:href="#m292aa818dc" y="285.693113"/>
     <use style="fill:#e7791f;stroke:#e7791f;" x="387.008859" xlink:href="#m292aa818dc" y="272.375713"/>
     <use style="fill:#e7791f;stroke:#e7791f;" x="419.680793" xlink:href="#m292aa818dc" y="255.372583"/>
     <use style="fill:#e7791f;stroke:#e7791f;" x="452.352727" xlink:href="#m292aa818dc" y="235.41524"/>
     <use style="fill:#e7791f;stroke:#e7791f;" x="485.024661" xlink:href="#m292aa818dc" y="209.352526"/>
     <use style="fill:#e7791f;stroke:#e7791f;" x="517.696596" xlink:href="#m292aa818dc" y="176.377894"/>
     <use style="fill:#e7791f;stroke:#e7791f;" x="546.650076" xlink:href="#m292aa818dc" y="124.449414"/>
     <use style="fill:#e7791f;stroke:#e7791f;" x="583.040464" xlink:href="#m292aa818dc" y="42.34108"/>
    </g>
   </g>
   <g id="line2d_4">
    <path clip-path="url(#pc6f5879db7)" d="M -1 332.771906 
L 92.961451 332.772935 
L 125.633385 332.763556 
L 158.305319 332.519716 
L 190.977253 331.835089 
L 223.649188 330.991029 
L 256.321122 329.143474 
L 288.993056 326.44248 
L 321.66499 322.409747 
L 354.336925 316.313754 
L 387.008859 309.917651 
L 419.680793 303.380871 
L 452.352727 297.810071 
L 485.024661 293.683553 
L 517.696596 289.763361 
L 546.650076 286.199549 
L 583.040464 281.491567 
" style="fill:none;stroke:#f3a442;stroke-linecap:round;stroke-width:2;"/>
    <defs>
     <path d="M 0 3 
C 0.795609 3 1.55874 2.683901 2.12132 2.12132 
C 2.683901 1.55874 3 0.795609 3 0 
C 3 -0.795609 2.683901 -1.55874 2.12132 -2.12132 
C 1.55874 -2.683901 0.795609 -3 0 -3 
C -0.795609 -3 -1.55874 -2.683901 -2.12132 -2.12132 
C -2.683901 -1.55874 -3 -0.795609 -3 0 
C -3 0.795609 -2.683901 1.55874 -2.12132 2.12132 
C -1.55874 2.683901 -0.795609 3 0 3 
z
" id="m0b88a12bfb" style="stroke:#f3a442;"/>
    </defs>
    <g clip-path="url(#pc6f5879db7)">
     <use style="fill:#f3a442;stroke:#f3a442;" x="-1" xlink:href="#m0b88a12bfb" y="332.771906"/>
     <use style="fill:#f3a442;stroke:#f3a442;" x="92.961451" xlink:href="#m0b88a12bfb" y="332.772935"/>
     <use style="fill:#f3a442;stroke:#f3a442;" x="125.633385" xlink:href="#m0b88a12bfb" y="332.763556"/>
     <use style="fill:#f3a442;stroke:#f3a442;" x="158.305319" xlink:href="#m0b88a12bfb" y="332.519716"/>
     <use style="fill:#f3a442;stroke:#f3a442;" x="190.977253" xlink:href="#m0b88a12bfb" y="331.835089"/>
     <use style="fill:#f3a442;stroke:#f3a442;" x="223.649188" xlink:href="#m0b88a12bfb" y="330.991029"/>
     <use style="fill:#f3a442;stroke:#f3a442;" x="256.321122" xlink:href="#m0b88a12bfb" y="329.143474"/>
     <use style="fill:#f3a442;stroke:#f3a442;" x="288.993056" xlink:href="#m0b88a12bfb" y="326.44248"/>
     <use style="fill:#f3a442;stroke:#f3a442;" x="321.66499" xlink:href="#m0b88a12bfb" y="322.409747"/>
     <use style="fill:#f3a442;stroke:#f3a442;" x="354.336925" xlink:href="#m0b88a12bfb" y="316.313754"/>
     <use style="fill:#f3a442;stroke:#f3a442;" x="387.008859" xlink:href="#m0b88a12bfb" y="309.917651"/>
     <use style="fill:#f3a442;stroke:#f3a442;" x="419.680793" xlink:href="#m0b88a12bfb" y="303.380871"/>
     <use style="fill:#f3a442;stroke:#f3a442;" x="452.352727" xlink:href="#m0b88a12bfb" y="297.810071"/>
     <use style="fill:#f3a442;stroke:#f3a442;" x="485.024661" xlink:href="#m0b88a12bfb" y="293.683553"/>
     <use style="fill:#f3a442;stroke:#f3a442;" x="517.696596" xlink:href="#m0b88a12bfb" y="289.763361"/>
     <use style="fill:#f3a442;stroke:#f3a442;" x="546.650076" xlink:href="#m0b88a12bfb" y="286.199549"/>
     <use style="fill:#f3a442;stroke:#f3a442;" x="583.040464" xlink:href="#m0b88a12bfb" y="281.491567"/>
    </g>
   </g>
   <g id="line2d_5">
    <path clip-path="url(#pc6f5879db7)" d="M -1 338.606491 
L 92.961451 338.606331 
L 125.633385 338.400005 
L 158.305319 338.30622 
L 190.977253 337.76227 
L 223.649188 337.977975 
L 256.321122 338.071759 
L 288.993056 337.968596 
L 321.66499 337.687243 
L 354.336925 337.105779 
L 387.008859 336.927588 
L 419.680793 336.477422 
L 452.352727 335.58647 
L 485.024661 334.451677 
L 517.696596 333.363777 
L 546.650076 331.497465 
L 583.040464 329.921886 
" style="fill:none;stroke:#794724;stroke-dasharray:7.4,3.2;stroke-dashoffset:0;stroke-width:2;"/>
   </g>
   <g id="line2d_6">
    <path clip-path="url(#pc6f5879db7)" d="M -1 335.689922 
L 92.961451 335.689633 
L 125.633385 336.139798 
L 158.305319 336.083528 
L 190.977253 336.055392 
L 223.649188 335.980365 
L 256.321122 335.811552 
L 288.993056 335.661497 
L 321.66499 335.417658 
L 354.336925 334.995627 
L 387.008859 334.292244 
L 419.680793 333.541967 
L 452.352727 332.1352 
L 485.024661 330.128211 
L 517.696596 327.455353 
L 546.650076 324.154139 
L 583.040464 320.909195 
" style="fill:none;stroke:#be5a15;stroke-dasharray:7.4,3.2;stroke-dashoffset:0;stroke-width:2;"/>
   </g>
   <g id="line2d_7">
    <path clip-path="url(#pc6f5879db7)" d="M -1 314.738162 
L 92.961451 314.738174 
L 125.633385 314.794445 
L 158.305319 314.663147 
L 190.977253 314.691282 
L 223.649188 314.672525 
L 256.321122 314.625633 
L 288.993056 314.175467 
L 321.66499 313.340785 
L 354.336925 311.699556 
L 387.008859 309.148618 
L 419.680793 304.196796 
L 452.352727 296.00003 
L 485.024661 281.088294 
L 517.696596 255.625801 
L 546.650076 212.081655 
L 583.040464 136.228747 
" style="fill:none;stroke:#e7791f;stroke-dasharray:7.4,3.2;stroke-dashoffset:0;stroke-width:2;"/>
   </g>
   <g id="line2d_8">
    <path clip-path="url(#pc6f5879db7)" d="M -1 333.129303 
L 92.961451 333.129316 
L 125.633385 333.363777 
L 158.305319 331.459951 
L 190.977253 333.176208 
L 223.649188 333.082423 
L 256.321122 332.838584 
L 288.993056 332.454067 
L 321.66499 331.544358 
L 354.336925 329.678046 
L 387.008859 329.199745 
L 419.680793 326.995809 
L 452.352727 326.555022 
L 485.024661 323.3007 
L 517.696596 314.353658 
L 546.650076 306.682085 
L 583.040464 302.443026 
" style="fill:none;stroke:#f3a442;stroke-dasharray:7.4,3.2;stroke-dashoffset:0;stroke-width:2;"/>
   </g>
   <g id="patch_3">
    <path d="M 68.4575 353.675625 
L 68.4575 27.515625 
" style="fill:none;stroke:#262626;stroke-linecap:square;stroke-linejoin:miter;stroke-width:0.8;"/>
   </g>
   <g id="patch_4">
    <path d="M 68.4575 353.675625 
L 626.4575 353.675625 
" style="fill:none;stroke:#262626;stroke-linecap:square;stroke-linejoin:miter;stroke-width:0.8;"/>
   </g>
   <g id="text_14">
    <!-- Abl GK:Gefitinib -->
    <defs>
     <path d="M -0.140625 0 
L 27.34375 71.578125 
L 37.546875 71.578125 
L 66.84375 0 
L 56.0625 0 
L 47.703125 21.6875 
L 17.78125 21.6875 
L 9.90625 0 
z
M 20.515625 29.390625 
L 44.78125 29.390625 
L 37.3125 49.21875 
Q 33.890625 58.25 32.234375 64.0625 
Q 30.859375 57.171875 28.375 50.390625 
z
" id="ArialMT-65"/>
     <path d="M 7.328125 0 
L 7.328125 71.578125 
L 16.796875 71.578125 
L 16.796875 36.078125 
L 52.34375 71.578125 
L 65.1875 71.578125 
L 35.15625 42.578125 
L 66.5 0 
L 54 0 
L 28.515625 36.234375 
L 16.796875 24.8125 
L 16.796875 0 
z
" id="ArialMT-75"/>
     <path d="M 9.03125 41.84375 
L 9.03125 51.859375 
L 19.046875 51.859375 
L 19.046875 41.84375 
z
M 9.03125 0 
L 9.03125 10.015625 
L 19.046875 10.015625 
L 19.046875 0 
z
" id="ArialMT-58"/>
    </defs>
    <g style="fill:#262626;" transform="translate(276.316875 21.515625)scale(0.2 -0.2)">
     <use xlink:href="#ArialMT-65"/>
     <use x="66.699219" xlink:href="#ArialMT-98"/>
     <use x="122.314453" xlink:href="#ArialMT-108"/>
     <use x="144.53125" xlink:href="#ArialMT-32"/>
     <use x="172.314453" xlink:href="#ArialMT-71"/>
     <use x="250.097656" xlink:href="#ArialMT-75"/>
     <use x="316.796875" xlink:href="#ArialMT-58"/>
     <use x="344.580078" xlink:href="#ArialMT-71"/>
     <use x="422.363281" xlink:href="#ArialMT-101"/>
     <use x="477.978516" xlink:href="#ArialMT-102"/>
     <use x="505.761719" xlink:href="#ArialMT-105"/>
     <use x="527.978516" xlink:href="#ArialMT-116"/>
     <use x="555.761719" xlink:href="#ArialMT-105"/>
     <use x="577.978516" xlink:href="#ArialMT-110"/>
     <use x="633.59375" xlink:href="#ArialMT-105"/>
     <use x="655.810547" xlink:href="#ArialMT-98"/>
    </g>
   </g>
   <g id="legend_1">
    <g id="patch_5">
     <path d="M 75.4575 148.767188 
L 183.593437 148.767188 
Q 185.593437 148.767188 185.593437 146.767187 
L 185.593437 34.515625 
Q 185.593437 32.515625 183.593437 32.515625 
L 75.4575 32.515625 
Q 73.4575 32.515625 73.4575 34.515625 
L 73.4575 146.767187 
Q 73.4575 148.767188 75.4575 148.767188 
z
" style="fill:#ffffff;opacity:0.8;stroke:#cccccc;stroke-linejoin:miter;"/>
    </g>
    <g id="line2d_9">
     <path d="M 77.4575 40.203125 
L 97.4575 40.203125 
" style="fill:none;stroke:#794724;stroke-linecap:round;stroke-width:2;"/>
    </g>
    <g id="line2d_10">
     <g>
      <use style="fill:#794724;stroke:#794724;" x="87.4575" xlink:href="#m5a7569c2f9" y="40.203125"/>
     </g>
    </g>
    <g id="text_15">
     <!-- Format 1, protein -->
     <defs>
      <path d="M 6.59375 0 
L 6.59375 51.859375 
L 14.453125 51.859375 
L 14.453125 44.578125 
Q 16.890625 48.390625 20.9375 50.703125 
Q 25 53.03125 30.171875 53.03125 
Q 35.9375 53.03125 39.625 50.640625 
Q 43.3125 48.25 44.828125 43.953125 
Q 50.984375 53.03125 60.84375 53.03125 
Q 68.5625 53.03125 72.703125 48.75 
Q 76.859375 44.484375 76.859375 35.59375 
L 76.859375 0 
L 68.109375 0 
L 68.109375 32.671875 
Q 68.109375 37.9375 67.25 40.25 
Q 66.40625 42.578125 64.15625 43.984375 
Q 61.921875 45.40625 58.890625 45.40625 
Q 53.421875 45.40625 49.796875 41.765625 
Q 46.1875 38.140625 46.1875 30.125 
L 46.1875 0 
L 37.40625 0 
L 37.40625 33.6875 
Q 37.40625 39.546875 35.25 42.46875 
Q 33.109375 45.40625 28.21875 45.40625 
Q 24.515625 45.40625 21.359375 43.453125 
Q 18.21875 41.5 16.796875 37.734375 
Q 15.375 33.984375 15.375 26.90625 
L 15.375 0 
z
" id="ArialMT-109"/>
      <path d="M 40.4375 6.390625 
Q 35.546875 2.25 31.03125 0.53125 
Q 26.515625 -1.171875 21.34375 -1.171875 
Q 12.796875 -1.171875 8.203125 3 
Q 3.609375 7.171875 3.609375 13.671875 
Q 3.609375 17.484375 5.34375 20.625 
Q 7.078125 23.78125 9.890625 25.6875 
Q 12.703125 27.59375 16.21875 28.5625 
Q 18.796875 29.25 24.03125 29.890625 
Q 34.671875 31.15625 39.703125 32.90625 
Q 39.75 34.71875 39.75 35.203125 
Q 39.75 40.578125 37.25 42.78125 
Q 33.890625 45.75 27.25 45.75 
Q 21.046875 45.75 18.09375 43.578125 
Q 15.140625 41.40625 13.71875 35.890625 
L 5.125 37.0625 
Q 6.296875 42.578125 8.984375 45.96875 
Q 11.671875 49.359375 16.75 51.1875 
Q 21.828125 53.03125 28.515625 53.03125 
Q 35.15625 53.03125 39.296875 51.46875 
Q 43.453125 49.90625 45.40625 47.53125 
Q 47.359375 45.171875 48.140625 41.546875 
Q 48.578125 39.3125 48.578125 33.453125 
L 48.578125 21.734375 
Q 48.578125 9.46875 49.140625 6.21875 
Q 49.703125 2.984375 51.375 0 
L 42.1875 0 
Q 40.828125 2.734375 40.4375 6.390625 
z
M 39.703125 26.03125 
Q 34.90625 24.078125 25.34375 22.703125 
Q 19.921875 21.921875 17.671875 20.9375 
Q 15.4375 19.96875 14.203125 18.09375 
Q 12.984375 16.21875 12.984375 13.921875 
Q 12.984375 10.40625 15.640625 8.0625 
Q 18.3125 5.71875 23.4375 5.71875 
Q 28.515625 5.71875 32.46875 7.9375 
Q 36.421875 10.15625 38.28125 14.015625 
Q 39.703125 17 39.703125 22.796875 
z
" id="ArialMT-97"/>
      <path d="M 8.890625 0 
L 8.890625 10.015625 
L 18.890625 10.015625 
L 18.890625 0 
Q 18.890625 -5.515625 16.9375 -8.90625 
Q 14.984375 -12.3125 10.75 -14.15625 
L 8.296875 -10.40625 
Q 11.078125 -9.1875 12.390625 -6.8125 
Q 13.71875 -4.4375 13.875 0 
z
" id="ArialMT-44"/>
      <path d="M 6.59375 -19.875 
L 6.59375 51.859375 
L 14.59375 51.859375 
L 14.59375 45.125 
Q 17.4375 49.078125 21 51.046875 
Q 24.5625 53.03125 29.640625 53.03125 
Q 36.28125 53.03125 41.359375 49.609375 
Q 46.4375 46.1875 49.015625 39.953125 
Q 51.609375 33.734375 51.609375 26.3125 
Q 51.609375 18.359375 48.75 11.984375 
Q 45.90625 5.609375 40.453125 2.21875 
Q 35.015625 -1.171875 29 -1.171875 
Q 24.609375 -1.171875 21.109375 0.6875 
Q 17.625 2.546875 15.375 5.375 
L 15.375 -19.875 
z
M 14.546875 25.640625 
Q 14.546875 15.625 18.59375 10.84375 
Q 22.65625 6.0625 28.421875 6.0625 
Q 34.28125 6.0625 38.453125 11.015625 
Q 42.625 15.96875 42.625 26.375 
Q 42.625 36.28125 38.546875 41.203125 
Q 34.46875 46.140625 28.8125 46.140625 
Q 23.1875 46.140625 18.859375 40.890625 
Q 14.546875 35.640625 14.546875 25.640625 
z
" id="ArialMT-112"/>
     </defs>
     <g style="fill:#262626;" transform="translate(105.4575 43.703125)scale(0.1 -0.1)">
      <use xlink:href="#ArialMT-70"/>
      <use x="61.083984" xlink:href="#ArialMT-111"/>
      <use x="116.699219" xlink:href="#ArialMT-114"/>
      <use x="150" xlink:href="#ArialMT-109"/>
      <use x="233.300781" xlink:href="#ArialMT-97"/>
      <use x="288.916016" xlink:href="#ArialMT-116"/>
      <use x="316.699219" xlink:href="#ArialMT-32"/>
      <use x="344.482422" xlink:href="#ArialMT-49"/>
      <use x="400.097656" xlink:href="#ArialMT-44"/>
      <use x="427.880859" xlink:href="#ArialMT-32"/>
      <use x="455.664062" xlink:href="#ArialMT-112"/>
      <use x="511.279297" xlink:href="#ArialMT-114"/>
      <use x="544.580078" xlink:href="#ArialMT-111"/>
      <use x="600.195312" xlink:href="#ArialMT-116"/>
      <use x="627.978516" xlink:href="#ArialMT-101"/>
      <use x="683.59375" xlink:href="#ArialMT-105"/>
      <use x="705.810547" xlink:href="#ArialMT-110"/>
     </g>
    </g>
    <g id="line2d_11">
     <path d="M 77.4575 54.348437 
L 97.4575 54.348437 
" style="fill:none;stroke:#794724;stroke-dasharray:7.4,3.2;stroke-dashoffset:0;stroke-width:2;"/>
    </g>
    <g id="line2d_12"/>
    <g id="text_16">
     <!-- Format 1, buffer -->
     <g style="fill:#262626;" transform="translate(105.4575 57.848437)scale(0.1 -0.1)">
      <use xlink:href="#ArialMT-70"/>
      <use x="61.083984" xlink:href="#ArialMT-111"/>
      <use x="116.699219" xlink:href="#ArialMT-114"/>
      <use x="150" xlink:href="#ArialMT-109"/>
      <use x="233.300781" xlink:href="#ArialMT-97"/>
      <use x="288.916016" xlink:href="#ArialMT-116"/>
      <use x="316.699219" xlink:href="#ArialMT-32"/>
      <use x="344.482422" xlink:href="#ArialMT-49"/>
      <use x="400.097656" xlink:href="#ArialMT-44"/>
      <use x="427.880859" xlink:href="#ArialMT-32"/>
      <use x="455.664062" xlink:href="#ArialMT-98"/>
      <use x="511.279297" xlink:href="#ArialMT-117"/>
      <use x="566.894531" xlink:href="#ArialMT-102"/>
      <use x="594.662109" xlink:href="#ArialMT-102"/>
      <use x="622.445312" xlink:href="#ArialMT-101"/>
      <use x="678.060547" xlink:href="#ArialMT-114"/>
     </g>
    </g>
    <g id="line2d_13">
     <path d="M 77.4575 68.523438 
L 97.4575 68.523438 
" style="fill:none;stroke:#be5a15;stroke-linecap:round;stroke-width:2;"/>
    </g>
    <g id="line2d_14">
     <g>
      <use style="fill:#be5a15;stroke:#be5a15;" x="87.4575" xlink:href="#m2729dae563" y="68.523438"/>
     </g>
    </g>
    <g id="text_17">
     <!-- Format 2, protein -->
     <g style="fill:#262626;" transform="translate(105.4575 72.023438)scale(0.1 -0.1)">
      <use xlink:href="#ArialMT-70"/>
      <use x="61.083984" xlink:href="#ArialMT-111"/>
      <use x="116.699219" xlink:href="#ArialMT-114"/>
      <use x="150" xlink:href="#ArialMT-109"/>
      <use x="233.300781" xlink:href="#ArialMT-97"/>
      <use x="288.916016" xlink:href="#ArialMT-116"/>
      <use x="316.699219" xlink:href="#ArialMT-32"/>
      <use x="344.482422" xlink:href="#ArialMT-50"/>
      <use x="400.097656" xlink:href="#ArialMT-44"/>
      <use x="427.880859" xlink:href="#ArialMT-32"/>
      <use x="455.664062" xlink:href="#ArialMT-112"/>
      <use x="511.279297" xlink:href="#ArialMT-114"/>
      <use x="544.580078" xlink:href="#ArialMT-111"/>
      <use x="600.195312" xlink:href="#ArialMT-116"/>
      <use x="627.978516" xlink:href="#ArialMT-101"/>
      <use x="683.59375" xlink:href="#ArialMT-105"/>
      <use x="705.810547" xlink:href="#ArialMT-110"/>
     </g>
    </g>
    <g id="line2d_15">
     <path d="M 77.4575 82.66875 
L 97.4575 82.66875 
" style="fill:none;stroke:#be5a15;stroke-dasharray:7.4,3.2;stroke-dashoffset:0;stroke-width:2;"/>
    </g>
    <g id="line2d_16"/>
    <g id="text_18">
     <!-- Format 2, buffer -->
     <g style="fill:#262626;" transform="translate(105.4575 86.16875)scale(0.1 -0.1)">
      <use xlink:href="#ArialMT-70"/>
      <use x="61.083984" xlink:href="#ArialMT-111"/>
      <use x="116.699219" xlink:href="#ArialMT-114"/>
      <use x="150" xlink:href="#ArialMT-109"/>
      <use x="233.300781" xlink:href="#ArialMT-97"/>
      <use x="288.916016" xlink:href="#ArialMT-116"/>
      <use x="316.699219" xlink:href="#ArialMT-32"/>
      <use x="344.482422" xlink:href="#ArialMT-50"/>
      <use x="400.097656" xlink:href="#ArialMT-44"/>
      <use x="427.880859" xlink:href="#ArialMT-32"/>
      <use x="455.664062" xlink:href="#ArialMT-98"/>
      <use x="511.279297" xlink:href="#ArialMT-117"/>
      <use x="566.894531" xlink:href="#ArialMT-102"/>
      <use x="594.662109" xlink:href="#ArialMT-102"/>
      <use x="622.445312" xlink:href="#ArialMT-101"/>
      <use x="678.060547" xlink:href="#ArialMT-114"/>
     </g>
    </g>
    <g id="line2d_17">
     <path d="M 77.4575 96.84375 
L 97.4575 96.84375 
" style="fill:none;stroke:#e7791f;stroke-linecap:round;stroke-width:2;"/>
    </g>
    <g id="line2d_18">
     <g>
      <use style="fill:#e7791f;stroke:#e7791f;" x="87.4575" xlink:href="#m292aa818dc" y="96.84375"/>
     </g>
    </g>
    <g id="text_19">
     <!-- Format 3, protein -->
     <g style="fill:#262626;" transform="translate(105.4575 100.34375)scale(0.1 -0.1)">
      <use xlink:href="#ArialMT-70"/>
      <use x="61.083984" xlink:href="#ArialMT-111"/>
      <use x="116.699219" xlink:href="#ArialMT-114"/>
      <use x="150" xlink:href="#ArialMT-109"/>
      <use x="233.300781" xlink:href="#ArialMT-97"/>
      <use x="288.916016" xlink:href="#ArialMT-116"/>
      <use x="316.699219" xlink:href="#ArialMT-32"/>
      <use x="344.482422" xlink:href="#ArialMT-51"/>
      <use x="400.097656" xlink:href="#ArialMT-44"/>
      <use x="427.880859" xlink:href="#ArialMT-32"/>
      <use x="455.664062" xlink:href="#ArialMT-112"/>
      <use x="511.279297" xlink:href="#ArialMT-114"/>
      <use x="544.580078" xlink:href="#ArialMT-111"/>
      <use x="600.195312" xlink:href="#ArialMT-116"/>
      <use x="627.978516" xlink:href="#ArialMT-101"/>
      <use x="683.59375" xlink:href="#ArialMT-105"/>
      <use x="705.810547" xlink:href="#ArialMT-110"/>
     </g>
    </g>
    <g id="line2d_19">
     <path d="M 77.4575 110.989062 
L 97.4575 110.989062 
" style="fill:none;stroke:#e7791f;stroke-dasharray:7.4,3.2;stroke-dashoffset:0;stroke-width:2;"/>
    </g>
    <g id="line2d_20"/>
    <g id="text_20">
     <!-- Format 3, buffer -->
     <g style="fill:#262626;" transform="translate(105.4575 114.489062)scale(0.1 -0.1)">
      <use xlink:href="#ArialMT-70"/>
      <use x="61.083984" xlink:href="#ArialMT-111"/>
      <use x="116.699219" xlink:href="#ArialMT-114"/>
      <use x="150" xlink:href="#ArialMT-109"/>
      <use x="233.300781" xlink:href="#ArialMT-97"/>
      <use x="288.916016" xlink:href="#ArialMT-116"/>
      <use x="316.699219" xlink:href="#ArialMT-32"/>
      <use x="344.482422" xlink:href="#ArialMT-51"/>
      <use x="400.097656" xlink:href="#ArialMT-44"/>
      <use x="427.880859" xlink:href="#ArialMT-32"/>
      <use x="455.664062" xlink:href="#ArialMT-98"/>
      <use x="511.279297" xlink:href="#ArialMT-117"/>
      <use x="566.894531" xlink:href="#ArialMT-102"/>
      <use x="594.662109" xlink:href="#ArialMT-102"/>
      <use x="622.445312" xlink:href="#ArialMT-101"/>
      <use x="678.060547" xlink:href="#ArialMT-114"/>
     </g>
    </g>
    <g id="line2d_21">
     <path d="M 77.4575 125.134375 
L 97.4575 125.134375 
" style="fill:none;stroke:#f3a442;stroke-linecap:round;stroke-width:2;"/>
    </g>
    <g id="line2d_22">
     <g>
      <use style="fill:#f3a442;stroke:#f3a442;" x="87.4575" xlink:href="#m0b88a12bfb" y="125.134375"/>
     </g>
    </g>
    <g id="text_21">
     <!-- Format 4, protein -->
     <defs>
      <path d="M 32.328125 0 
L 32.328125 17.140625 
L 1.265625 17.140625 
L 1.265625 25.203125 
L 33.9375 71.578125 
L 41.109375 71.578125 
L 41.109375 25.203125 
L 50.78125 25.203125 
L 50.78125 17.140625 
L 41.109375 17.140625 
L 41.109375 0 
z
M 32.328125 25.203125 
L 32.328125 57.46875 
L 9.90625 25.203125 
z
" id="ArialMT-52"/>
     </defs>
     <g style="fill:#262626;" transform="translate(105.4575 128.634375)scale(0.1 -0.1)">
      <use xlink:href="#ArialMT-70"/>
      <use x="61.083984" xlink:href="#ArialMT-111"/>
      <use x="116.699219" xlink:href="#ArialMT-114"/>
      <use x="150" xlink:href="#ArialMT-109"/>
      <use x="233.300781" xlink:href="#ArialMT-97"/>
      <use x="288.916016" xlink:href="#ArialMT-116"/>
      <use x="316.699219" xlink:href="#ArialMT-32"/>
      <use x="344.482422" xlink:href="#ArialMT-52"/>
      <use x="400.097656" xlink:href="#ArialMT-44"/>
      <use x="427.880859" xlink:href="#ArialMT-32"/>
      <use x="455.664062" xlink:href="#ArialMT-112"/>
      <use x="511.279297" xlink:href="#ArialMT-114"/>
      <use x="544.580078" xlink:href="#ArialMT-111"/>
      <use x="600.195312" xlink:href="#ArialMT-116"/>
      <use x="627.978516" xlink:href="#ArialMT-101"/>
      <use x="683.59375" xlink:href="#ArialMT-105"/>
      <use x="705.810547" xlink:href="#ArialMT-110"/>
     </g>
    </g>
    <g id="line2d_23">
     <path d="M 77.4575 139.279688 
L 97.4575 139.279688 
" style="fill:none;stroke:#f3a442;stroke-dasharray:7.4,3.2;stroke-dashoffset:0;stroke-width:2;"/>
    </g>
    <g id="line2d_24"/>
    <g id="text_22">
     <!-- Format 4, buffer -->
     <g style="fill:#262626;" transform="translate(105.4575 142.779688)scale(0.1 -0.1)">
      <use xlink:href="#ArialMT-70"/>
      <use x="61.083984" xlink:href="#ArialMT-111"/>
      <use x="116.699219" xlink:href="#ArialMT-114"/>
      <use x="150" xlink:href="#ArialMT-109"/>
      <use x="233.300781" xlink:href="#ArialMT-97"/>
      <use x="288.916016" xlink:href="#ArialMT-116"/>
      <use x="316.699219" xlink:href="#ArialMT-32"/>
      <use x="344.482422" xlink:href="#ArialMT-52"/>
      <use x="400.097656" xlink:href="#ArialMT-44"/>
      <use x="427.880859" xlink:href="#ArialMT-32"/>
      <use x="455.664062" xlink:href="#ArialMT-98"/>
      <use x="511.279297" xlink:href="#ArialMT-117"/>
      <use x="566.894531" xlink:href="#ArialMT-102"/>
      <use x="594.662109" xlink:href="#ArialMT-102"/>
      <use x="622.445312" xlink:href="#ArialMT-101"/>
      <use x="678.060547" xlink:href="#ArialMT-114"/>
     </g>
    </g>
   </g>
  </g>
 </g>
 <defs>
  <clipPath id="pc6f5879db7">
   <rect height="326.16" width="558" x="68.4575" y="27.515625"/>
  </clipPath>
 </defs>
</svg>
